<?xml version="1.0" encoding="utf-8"?>
<!-- Generator: Adobe Illustrator 22.1.0, SVG Export Plug-In . SVG Version: 6.00 Build 0)  -->
<svg version="1.1" id="Layer_1" xmlns="http://www.w3.org/2000/svg" xmlns:xlink="http://www.w3.org/1999/xlink" x="0px" y="0px"
	 viewBox="0 0 41.195 37.304" style="enable-background:new 0 0 41.195 37.304;" xml:space="preserve">
<style type="text/css">
	.st0{fill:url(#SVGID_1_);}
	.st1{fill:#FFFFFF;}
	.st2{fill:#231F20;}
	.st3{display:none;}
	.st4{display:inline;fill:none;stroke:#231F20;stroke-width:0.25;stroke-miterlimit:10;}
</style>
<linearGradient id="SVGID_1_" gradientUnits="userSpaceOnUse" x1="34.7458" y1="12.2907" x2="6.6118" y2="40.4247">
	<stop  offset="0" style="stop-color:#FFC22A"/>
	<stop  offset="0.1287" style="stop-color:#FCAF28"/>
	<stop  offset="0.3414" style="stop-color:#F89525"/>
	<stop  offset="0.5334" style="stop-color:#F58524"/>
	<stop  offset="0.6854" style="stop-color:#F48023"/>
	<stop  offset="0.7649" style="stop-color:#EF7A23"/>
	<stop  offset="0.8667" style="stop-color:#E06A25"/>
	<stop  offset="0.9803" style="stop-color:#C85027"/>
	<stop  offset="1" style="stop-color:#C34B27"/>
</linearGradient>
<path class="st0" d="M20.679,0.305c-1.948,0-3.745,1.179-4.932,3.237L1.266,28.622c-1.187,2.057-1.31,4.204-0.336,5.89
	c0.973,1.686,2.893,2.654,5.268,2.654H35.16c2.374,0,4.295-0.968,5.268-2.654c0.973-1.686,0.851-3.833-0.336-5.89L25.611,3.541V3.54
	C24.423,1.484,22.626,0.305,20.679,0.305L20.679,0.305z"/>
<path class="st1" d="M20.679,2.731c-1.027,0-2.053,0.674-2.831,2.023L3.367,29.835c-0.45,0.78-0.664,1.519-0.665,2.175
	c-0.002,1.614,1.282,2.729,3.495,2.729H35.16c2.213,0,3.497-1.115,3.495-2.729c-0.001-0.656-0.214-1.395-0.664-2.175L23.51,4.754
	C22.731,3.406,21.704,2.731,20.679,2.731L20.679,2.731z M6.198,33.121c-0.877,0-1.537-0.236-1.765-0.632
	c-0.229-0.396-0.103-1.085,0.336-1.846L19.249,5.563c0.439-0.76,0.973-1.214,1.43-1.214c0.457,0,0.99,0.454,1.43,1.214L36.59,30.644
	c0.439,0.761,0.565,1.45,0.336,1.846c-0.228,0.396-0.888,0.632-1.765,0.632H6.198L6.198,33.121z"/>
<path class="st2" d="M32.413,28.656c-0.694-0.642-4.284-3.115-5.576-3.894c-1.292-0.779-3.411-1.813-3.993-2.054
	c-0.083-0.035-0.151-0.068-0.211-0.1c-0.106-0.399-0.331-0.744-0.636-1.002c0.02-0.849,0.486-2.817,0.678-3.924
	c0.205-1.18,0.175-3.497,0.051-4.525s-0.44-2.679-0.595-3.266c-0.155-0.587-0.194-0.733-0.452-0.767S20.8,9.32,20.47,9.398
	c-0.33,0.078-0.59-0.103-0.798,0.82s-0.556,5.268-0.584,6.776c-0.028,1.509,0.136,3.861,0.217,4.485
	c0.011,0.088,0.017,0.161,0.019,0.228c-0.285,0.283-0.484,0.649-0.557,1.06c-0.75,0.407-2.679,0.985-3.73,1.371
	c-1.124,0.412-3.116,1.597-3.944,2.219c-0.829,0.621-2.1,1.721-2.531,2.148c-0.43,0.427-0.538,0.534-0.438,0.774
	c0.1,0.24,0.609,0.665,0.842,0.911c0.233,0.247,0.206,0.562,1.109,0.282s4.84-2.152,6.16-2.882s3.276-2.048,3.775-2.431
	c0.081-0.062,0.141-0.093,0.206-0.131c0.17,0.045,0.346,0.076,0.531,0.073c0.227-0.003,0.44-0.052,0.642-0.124
	c0.725,0.441,2.197,1.829,3.059,2.549c0.919,0.768,2.941,1.9,3.893,2.306c0.953,0.407,2.54,0.959,3.126,1.118
	c0.585,0.159,0.732,0.199,0.89-0.008c0.158-0.207,0.271-0.86,0.368-1.185S33.108,29.298,32.413,28.656z M19.895,23.126
	c-0.006-0.456,0.359-0.83,0.814-0.836c0.456-0.006,0.83,0.359,0.836,0.814c0.006,0.456-0.359,0.83-0.814,0.836
	C20.275,23.947,19.9,23.582,19.895,23.126z"/>
<g class="st3">
	<line class="st4" x1="26.468" y1="5.742" x2="26.468" y2="52.507"/>
	<line class="st4" x1="1.164" y1="43.734" x2="51.772" y2="14.515"/>
	<line class="st4" x1="51.772" y1="43.734" x2="1.164" y2="14.515"/>
</g>
</svg>
