<?xml version="1.0" encoding="utf-8"?>
<!-- Generator: Adobe Illustrator 22.1.0, SVG Export Plug-In . SVG Version: 6.00 Build 0)  -->
<svg version="1.1" id="Layer_1" xmlns="http://www.w3.org/2000/svg" xmlns:xlink="http://www.w3.org/1999/xlink" x="0px" y="0px"
	 viewBox="0 0 118.862 38.304" style="enable-background:new 0 0 118.862 38.304;" xml:space="preserve">
<style type="text/css">
	.st0{fill:url(#SVGID_1_);}
	.st1{fill:#FFFFFF;}
	.st2{fill:#231F20;}
	.st3{display:none;}
	.st4{display:inline;fill:none;stroke:#231F20;stroke-width:0.25;stroke-miterlimit:10;}
</style>
<linearGradient id="SVGID_1_" gradientUnits="userSpaceOnUse" x1="34.9125" y1="13.0407" x2="6.7785" y2="41.1747">
	<stop  offset="0" style="stop-color:#FFC22A"/>
	<stop  offset="0.1287" style="stop-color:#FCAF28"/>
	<stop  offset="0.3414" style="stop-color:#F89525"/>
	<stop  offset="0.5334" style="stop-color:#F58524"/>
	<stop  offset="0.6854" style="stop-color:#F48023"/>
	<stop  offset="0.7649" style="stop-color:#EF7A23"/>
	<stop  offset="0.8667" style="stop-color:#E06A25"/>
	<stop  offset="0.9803" style="stop-color:#C85027"/>
	<stop  offset="1" style="stop-color:#C34B27"/>
</linearGradient>
<path class="st0" d="M20.845,1.055c-1.948,0-3.745,1.179-4.932,3.237L1.432,29.372c-1.187,2.057-1.31,4.204-0.336,5.89
	c0.973,1.686,2.893,2.654,5.268,2.654h28.962c2.374,0,4.295-0.968,5.268-2.654c0.973-1.686,0.851-3.833-0.336-5.89L25.777,4.291
	V4.29C24.589,2.234,22.792,1.055,20.845,1.055L20.845,1.055z"/>
<path class="st1" d="M20.845,3.481c-1.027,0-2.053,0.674-2.831,2.023L3.534,30.585c-0.45,0.78-0.664,1.519-0.665,2.175
	c-0.002,1.614,1.282,2.729,3.495,2.729h28.962c2.213,0,3.497-1.115,3.495-2.729c-0.001-0.656-0.214-1.395-0.664-2.175L23.676,5.504
	C22.897,4.156,21.871,3.481,20.845,3.481L20.845,3.481z M6.364,33.871c-0.877,0-1.537-0.236-1.765-0.632
	c-0.229-0.396-0.103-1.085,0.336-1.846L19.416,6.313c0.439-0.76,0.973-1.214,1.43-1.214c0.457,0,0.99,0.454,1.43,1.214
	l14.481,25.081c0.439,0.761,0.565,1.45,0.336,1.846c-0.228,0.396-0.888,0.632-1.765,0.632H6.364L6.364,33.871z"/>
<path class="st2" d="M32.58,29.406c-0.694-0.642-4.284-3.115-5.576-3.894c-1.292-0.779-3.411-1.813-3.993-2.054
	c-0.083-0.035-0.151-0.068-0.211-0.1c-0.106-0.399-0.331-0.744-0.636-1.002c0.02-0.849,0.486-2.817,0.678-3.924
	c0.205-1.18,0.175-3.497,0.051-4.525s-0.44-2.679-0.595-3.266c-0.155-0.587-0.194-0.733-0.452-0.767s-0.88,0.196-1.21,0.273
	c-0.33,0.078-0.59-0.103-0.798,0.82s-0.556,5.268-0.584,6.776c-0.028,1.509,0.136,3.861,0.217,4.485
	c0.011,0.088,0.017,0.161,0.019,0.228c-0.285,0.283-0.484,0.649-0.557,1.06c-0.75,0.407-2.679,0.985-3.73,1.371
	c-1.124,0.412-3.116,1.597-3.944,2.219c-0.829,0.621-2.1,1.721-2.531,2.148c-0.43,0.427-0.538,0.534-0.438,0.774
	c0.1,0.24,0.609,0.665,0.842,0.911c0.233,0.247,0.206,0.562,1.109,0.282s4.84-2.152,6.16-2.882s3.276-2.048,3.775-2.431
	c0.081-0.062,0.141-0.093,0.206-0.131c0.17,0.045,0.346,0.076,0.531,0.073c0.227-0.003,0.44-0.052,0.642-0.124
	c0.725,0.441,2.197,1.829,3.059,2.549c0.919,0.768,2.941,1.9,3.893,2.306c0.953,0.407,2.54,0.959,3.126,1.118
	c0.585,0.159,0.732,0.199,0.89-0.008c0.158-0.207,0.271-0.86,0.368-1.185S33.275,30.048,32.58,29.406z M20.061,23.876
	c-0.006-0.456,0.359-0.83,0.814-0.836c0.456-0.006,0.83,0.359,0.836,0.814c0.006,0.456-0.359,0.83-0.814,0.836
	C20.442,24.697,20.067,24.332,20.061,23.876z"/>
<g class="st3">
	<line class="st4" x1="26.635" y1="6.492" x2="26.635" y2="53.257"/>
	<line class="st4" x1="1.33" y1="44.484" x2="51.939" y2="15.265"/>
	<line class="st4" x1="51.939" y1="44.484" x2="1.33" y2="15.265"/>
</g>
<g>
	<path d="M53.054,25.203l-1.919-5.813c0.009-0.004,0.021-0.005,0.029-0.01c0.495-0.237,0.873-0.582,1.134-1.036
		c0.261-0.453,0.391-0.997,0.391-1.631v-1.511c0-0.616-0.13-1.145-0.391-1.586c-0.261-0.441-0.637-0.776-1.129-1.005
		c-0.492-0.228-1.085-0.342-1.778-0.342H48.21h-1.04H46.28v12.934h1.929v-5.467h1.089l1.64,5.467H53.054z M48.21,14.128h1.325
		c0.243,0,0.455,0.049,0.635,0.146s0.317,0.239,0.409,0.422s0.138,0.403,0.138,0.658v1.378c-0.006,0.249-0.055,0.458-0.146,0.626
		c-0.092,0.169-0.227,0.298-0.405,0.387s-0.388,0.133-0.631,0.133H48.21V14.128z"/>
	<path d="M58.233,25.036c0.406-0.201,0.714-0.495,0.924-0.881c0.21-0.385,0.316-0.848,0.316-1.387v-4.4c0-0.54-0.105-1-0.316-1.382
		s-0.519-0.673-0.924-0.871c-0.406-0.199-0.894-0.298-1.462-0.298s-1.057,0.099-1.462,0.298c-0.406,0.198-0.717,0.489-0.933,0.871
		c-0.217,0.382-0.325,0.843-0.325,1.382v4.374c0,0.546,0.108,1.013,0.325,1.399c0.216,0.389,0.527,0.686,0.933,0.89
		s0.894,0.307,1.462,0.307S57.826,25.237,58.233,25.036z M56.193,23.293c-0.137-0.154-0.205-0.374-0.205-0.658v-4.143
		c0-0.273,0.069-0.485,0.209-0.636c0.139-0.151,0.327-0.227,0.564-0.227c0.249,0,0.44,0.075,0.573,0.227
		c0.133,0.151,0.2,0.363,0.2,0.636v4.143c0,0.29-0.067,0.511-0.2,0.662c-0.133,0.15-0.324,0.227-0.573,0.227
		C56.518,23.524,56.329,23.448,56.193,23.293z"/>
	<path d="M63.241,13.292h-1.938v2.685h-0.88v1.813h0.88v5.013c0,0.813,0.184,1.423,0.551,1.832c0.367,0.408,0.945,0.613,1.733,0.613
		h0.925v-1.885h-0.658c-0.195,0-0.347-0.064-0.453-0.195s-0.16-0.311-0.16-0.543V17.79h1.271v-1.813h-1.271V13.292z"/>
	<path d="M71.153,18.368c0-0.54-0.104-1-0.315-1.382c-0.21-0.382-0.519-0.673-0.925-0.871c-0.405-0.199-0.893-0.298-1.462-0.298
		s-1.057,0.099-1.463,0.298c-0.405,0.198-0.717,0.489-0.933,0.871c-0.217,0.382-0.325,0.843-0.325,1.382v4.374
		c0,0.546,0.108,1.013,0.325,1.399c0.216,0.389,0.527,0.686,0.933,0.89c0.406,0.204,0.894,0.307,1.463,0.307
		s1.057-0.101,1.462-0.302c0.406-0.201,0.715-0.495,0.925-0.881c0.211-0.385,0.315-0.848,0.315-1.387V18.368z M69.216,22.635
		c0,0.29-0.066,0.511-0.2,0.662c-0.133,0.15-0.324,0.227-0.573,0.227c-0.243,0-0.433-0.076-0.569-0.23s-0.204-0.374-0.204-0.658
		v-4.143c0-0.273,0.069-0.485,0.209-0.636c0.139-0.151,0.327-0.227,0.564-0.227c0.249,0,0.44,0.075,0.573,0.227
		c0.134,0.151,0.2,0.363,0.2,0.636V22.635z"/>
	<path d="M77.057,17.826c0,0,0.029-0.003,0.089-0.009v-2c-0.533,0-1.024,0.155-1.472,0.466c-0.361,0.251-0.651,0.604-0.902,1.014
		v-1.321h-1.955v9.227h1.955v-5.556c0.006-0.563,0.178-1.007,0.516-1.333c0.338-0.326,0.81-0.489,1.414-0.489
		c0.095,0,0.178,0,0.249,0C77.021,17.826,77.057,17.826,77.057,17.826z"/>
	<polygon points="84.48,25.203 84.48,12.279 82.524,12.279 82.524,17.914 80.372,17.914 80.372,12.279 78.417,12.279 78.417,25.203 
		80.372,25.203 80.372,19.755 82.524,19.755 82.524,25.203 	"/>
	<path d="M91.813,25.203v-6.685c0-0.569-0.109-1.056-0.329-1.462c-0.219-0.406-0.536-0.714-0.951-0.924
		c-0.414-0.21-0.915-0.315-1.502-0.315c-0.865,0-1.536,0.235-2.014,0.707c-0.477,0.471-0.719,1.137-0.725,1.996h1.876
		c0.006-0.308,0.08-0.546,0.223-0.715c0.142-0.169,0.343-0.253,0.604-0.253c0.302,0,0.536,0.084,0.702,0.253
		s0.249,0.407,0.249,0.715v1.138h-0.89c-0.966,0-1.699,0.258-2.2,0.773c-0.501,0.516-0.751,1.28-0.751,2.294
		c0,0.865,0.187,1.517,0.561,1.956c0.373,0.438,0.918,0.657,1.636,0.657c0.391,0,0.72-0.077,0.986-0.231s0.47-0.385,0.609-0.693
		c0.021-0.047,0.031-0.107,0.049-0.158v0.949H91.813z M89.661,23.364c-0.189,0.201-0.465,0.303-0.826,0.303
		c-0.291,0-0.51-0.078-0.658-0.236c-0.148-0.156-0.222-0.393-0.222-0.706c0-0.474,0.098-0.833,0.293-1.076
		c0.195-0.243,0.485-0.365,0.871-0.365h0.827v1.191C89.946,22.866,89.851,23.162,89.661,23.364z"/>
	<polygon points="98.418,17.657 98.418,15.976 93.502,15.976 93.502,17.808 96.453,17.808 93.377,23.489 93.377,25.203 
		98.658,25.203 98.658,23.373 95.467,23.373 	"/>
	<path d="M104.382,16.132c-0.414-0.21-0.915-0.315-1.502-0.315c-0.865,0-1.536,0.235-2.014,0.707
		c-0.477,0.471-0.719,1.137-0.725,1.996h1.876c0.006-0.308,0.08-0.546,0.223-0.715c0.142-0.169,0.343-0.253,0.604-0.253
		c0.302,0,0.536,0.084,0.702,0.253s0.249,0.407,0.249,0.715v1.138h-0.89c-0.966,0-1.699,0.258-2.2,0.773
		c-0.501,0.516-0.751,1.28-0.751,2.294c0,0.865,0.187,1.517,0.561,1.956c0.373,0.438,0.918,0.657,1.636,0.657
		c0.391,0,0.72-0.077,0.986-0.231s0.47-0.385,0.609-0.693c0.021-0.047,0.031-0.107,0.049-0.158v0.949h1.866v-6.685
		c0-0.569-0.109-1.056-0.329-1.462C105.114,16.651,104.797,16.343,104.382,16.132z M103.511,23.364
		c-0.189,0.201-0.465,0.303-0.826,0.303c-0.291,0-0.51-0.078-0.658-0.236c-0.148-0.156-0.222-0.393-0.222-0.706
		c0-0.474,0.098-0.833,0.293-1.076c0.195-0.243,0.485-0.365,0.871-0.365h0.827v1.191C103.796,22.866,103.7,23.162,103.511,23.364z"
		/>
	<path d="M111.397,17.826c0.095,0,0.178,0,0.249,0c0.07,0,0.106,0,0.106,0s0.029-0.003,0.089-0.009v-2
		c-0.533,0-1.024,0.155-1.472,0.466c-0.361,0.251-0.651,0.604-0.902,1.014v-1.321h-1.955v9.227h1.955v-5.556
		c0.006-0.563,0.178-1.007,0.516-1.333C110.32,17.989,110.792,17.826,111.397,17.826z"/>
	<path d="M116.543,12.279v4.832c-0.18-0.342-0.385-0.643-0.64-0.858c-0.344-0.291-0.723-0.436-1.138-0.436
		c-0.403,0-0.748,0.105-1.036,0.315c-0.287,0.21-0.508,0.517-0.662,0.92c-0.154,0.403-0.23,0.883-0.23,1.44v4.231
		c0,0.558,0.075,1.032,0.227,1.427c0.15,0.395,0.371,0.695,0.662,0.902c0.29,0.207,0.637,0.311,1.04,0.311
		c0.444,0,0.834-0.141,1.169-0.422c0.265-0.222,0.457-0.538,0.608-0.903v1.165h1.956V12.279H116.543z M116.442,23.075
		c-0.068,0.164-0.168,0.286-0.298,0.369c-0.131,0.083-0.291,0.125-0.48,0.125c-0.284,0-0.505-0.091-0.662-0.271
		s-0.235-0.438-0.235-0.77v-3.813c0-0.35,0.078-0.623,0.235-0.818c0.157-0.196,0.378-0.293,0.662-0.293
		c0.189,0,0.35,0.043,0.48,0.129c0.13,0.086,0.229,0.212,0.298,0.378c0.067,0.166,0.102,0.364,0.102,0.596v3.787
		C116.543,22.718,116.509,22.912,116.442,23.075z"/>
	<polygon points="46.578,27.449 46.293,27.449 46.293,31.6 46.875,31.6 46.875,29.853 48.591,29.853 48.591,29.299 46.875,29.299 
		46.875,28.003 48.905,28.003 48.905,27.449 46.875,27.449 	"/>
	<path d="M53.811,27.608c-0.188-0.105-0.406-0.159-0.654-0.159h-1.025h-0.283h-0.3V31.6h0.583v-1.61h1.025
		c0.248,0,0.465-0.052,0.654-0.157c0.188-0.104,0.334-0.252,0.438-0.443c0.104-0.191,0.156-0.414,0.156-0.667
		s-0.052-0.476-0.156-0.668C54.145,27.862,53.999,27.713,53.811,27.608z M53.729,29.096c-0.052,0.108-0.126,0.192-0.221,0.251
		c-0.095,0.06-0.206,0.089-0.331,0.089h-1.045v-1.433h1.045c0.125,0,0.236,0.029,0.331,0.09c0.095,0.06,0.169,0.144,0.221,0.252
		c0.053,0.108,0.079,0.234,0.079,0.377C53.808,28.864,53.782,28.988,53.729,29.096z"/>
	<polygon points="58.379,30.703 57.383,27.449 56.749,27.449 58.102,31.6 58.656,31.6 60.009,27.449 59.375,27.449 	"/>
	<path d="M67.86,29.696c0.182-0.099,0.322-0.239,0.424-0.421c0.101-0.182,0.151-0.392,0.151-0.63c0-0.237-0.051-0.447-0.15-0.629
		s-0.24-0.322-0.422-0.421c-0.183-0.1-0.393-0.148-0.633-0.148h-1.064h-0.329h-0.254V31.6h0.583v-1.756h0.866l0.887,1.756h0.69
		l-0.961-1.824C67.721,29.753,67.795,29.731,67.86,29.696z M66.166,28h1.087c0.112,0,0.211,0.026,0.296,0.08
		c0.085,0.053,0.15,0.129,0.197,0.227c0.046,0.098,0.069,0.211,0.069,0.338c0,0.128-0.023,0.24-0.069,0.339
		c-0.047,0.098-0.113,0.174-0.199,0.227c-0.085,0.054-0.184,0.08-0.294,0.08h-1.087V28z"/>
	<path d="M72.4,27.449l-1.53,4.151h0.628l0.313-0.911h1.675l0.313,0.911h0.628l-1.529-4.151H72.4z M72,30.135l0.647-1.884
		l0.647,1.884H72z"/>
	<path d="M77.573,28.441c0.07-0.147,0.169-0.262,0.297-0.344c0.127-0.082,0.275-0.123,0.445-0.123c0.121,0,0.239,0.028,0.354,0.083
		c0.114,0.056,0.214,0.134,0.299,0.235c0.084,0.103,0.145,0.218,0.181,0.347h0.597c-0.047-0.245-0.138-0.461-0.272-0.647
		c-0.134-0.187-0.301-0.331-0.501-0.433s-0.419-0.152-0.656-0.152c-0.288,0-0.54,0.063-0.758,0.192
		c-0.219,0.128-0.388,0.31-0.507,0.544c-0.12,0.234-0.18,0.505-0.18,0.813v1.139c0,0.309,0.06,0.58,0.18,0.814
		c0.119,0.233,0.288,0.414,0.507,0.542c0.218,0.128,0.326,0.191,0.326,0.191s0.144,0,0.432,0c0.235,0,0.454-0.051,0.653-0.153
		c0.2-0.102,0.367-0.245,0.503-0.432c0.135-0.187,0.227-0.403,0.273-0.648h-0.597c-0.036,0.139-0.097,0.259-0.181,0.359
		c-0.085,0.102-0.184,0.178-0.297,0.229c-0.113,0.052-0.232,0.077-0.355,0.077c-0.17,0-0.318-0.04-0.445-0.121
		c-0.128-0.081-0.227-0.195-0.297-0.344s-0.106-0.32-0.106-0.515v-1.139C77.467,28.76,77.503,28.588,77.573,28.441z"/>
	<polygon points="82.844,27.449 82.561,27.449 82.561,31.6 82.844,31.6 83.144,31.6 85.228,31.6 85.228,31.046 83.144,31.046 
		83.144,29.816 84.913,29.816 84.913,29.262 83.144,29.262 83.144,28.003 85.228,28.003 85.228,27.449 83.144,27.449 	"/>
	<polygon points="90.46,28.003 91.633,28.003 91.633,31.6 92.215,31.6 92.215,28.003 93.389,28.003 93.389,27.449 90.46,27.449 	"/>
	<rect x="95.833" y="27.449" width="0.583" height="4.151"/>
	<polygon points="101.195,30.19 99.977,27.449 99.431,27.449 99.431,31.6 99.999,31.6 99.999,28.794 100.992,31.023 101.398,31.023 
		102.392,28.739 102.392,31.6 102.959,31.6 102.959,27.449 102.414,27.449 	"/>
	<rect x="105.976" y="27.449" width="0.583" height="4.151"/>
	<polygon points="112.063,30.548 110.102,27.449 109.573,27.449 109.573,31.597 110.151,31.597 110.151,28.544 112.106,31.597 
		112.64,31.597 112.64,27.449 112.063,27.449 	"/>
	<path d="M117.055,29.921h0.842v0.18c0,0.202-0.035,0.376-0.105,0.522s-0.171,0.259-0.3,0.336c-0.13,0.077-0.28,0.115-0.451,0.115
		c-0.173,0-0.326-0.037-0.458-0.111c-0.133-0.074-0.234-0.179-0.307-0.313c-0.073-0.134-0.109-0.291-0.109-0.47v-1.225
		c0-0.196,0.036-0.368,0.106-0.516s0.17-0.262,0.3-0.344c0.129-0.082,0.279-0.123,0.45-0.123c0.118,0,0.232,0.026,0.343,0.079
		c0.11,0.052,0.207,0.128,0.289,0.229c0.081,0.1,0.14,0.219,0.174,0.357h0.631c-0.048-0.245-0.139-0.461-0.274-0.647
		c-0.135-0.187-0.303-0.331-0.504-0.433c-0.2-0.102-0.42-0.152-0.658-0.152c-0.289,0-0.543,0.063-0.764,0.192
		c-0.22,0.128-0.39,0.31-0.509,0.544c-0.12,0.234-0.18,0.505-0.18,0.813v1.225c0,0.291,0.061,0.547,0.183,0.768
		c0.121,0.222,0.293,0.392,0.515,0.513s0.479,0.182,0.772,0.182c0.289,0,0.544-0.064,0.764-0.192c0.22-0.129,0.39-0.311,0.51-0.546
		s0.18-0.507,0.18-0.814v-0.726h-1.438V29.921z"/>
</g>
</svg>
