<?xml version="1.0" standalone="no"?>
<!DOCTYPE svg PUBLIC "-//W3C//DTD SVG 20010904//EN"
 "http://www.w3.org/TR/2001/REC-SVG-20010904/DTD/svg10.dtd">
<svg version="1.0" xmlns="http://www.w3.org/2000/svg"
 width="700.000000pt" height="700.000000pt" viewBox="0 0 700.000000 700.000000"
 preserveAspectRatio="xMidYMid meet">
<metadata>
Created by potrace 1.11, written by Peter Selinger 2001-2013
</metadata>
<g transform="translate(0.000000,700.000000) scale(0.100000,-0.100000)"
fill="#000000" stroke="none">
<path d="M3435 6613 c-54 -4 -178 -33 -190 -44 -5 -5 -15 -9 -23 -9 -25 0
-154 -70 -224 -122 -158 -116 -254 -247 -511 -695 -82 -142 -152 -265 -157
-273 -13 -21 -149 -258 -173 -300 -10 -19 -86 -150 -167 -290 -81 -140 -157
-272 -169 -293 -12 -21 -61 -107 -110 -190 -103 -179 -460 -796 -489 -847 -11
-19 -60 -105 -109 -190 -49 -85 -168 -290 -263 -455 -95 -165 -196 -340 -225
-390 -108 -185 -233 -402 -257 -445 -14 -25 -55 -95 -90 -156 -127 -215 -189
-365 -217 -524 -8 -49 -7 -266 2 -321 35 -215 173 -419 369 -546 108 -70 275
-133 393 -149 28 -3 59 -9 70 -12 33 -8 5141 -9 5213 0 203 24 323 62 470 150
87 52 198 155 251 232 51 74 99 178 123 268 17 65 22 111 22 213 0 183 -36
329 -124 505 -31 62 -249 445 -367 645 -16 28 -32 57 -36 65 -5 8 -13 24 -20
35 -12 20 -113 195 -132 228 -5 9 -69 120 -141 245 -73 125 -223 385 -334 577
-111 193 -236 409 -278 480 -41 72 -84 146 -95 165 -58 103 -253 440 -273 472
-13 21 -24 40 -24 43 0 3 -20 38 -44 78 -24 39 -147 252 -273 472 -127 220
-260 451 -297 513 -36 62 -66 115 -66 117 0 4 -71 124 -114 195 -152 244 -306
392 -500 480 -126 57 -282 84 -421 73z m210 -432 c104 -37 194 -105 277 -211
39 -50 168 -265 168 -280 0 -6 5 -10 10 -10 6 0 10 -5 10 -11 0 -6 22 -48 49
-93 27 -44 58 -97 68 -116 11 -19 114 -197 228 -395 114 -198 249 -432 300
-520 51 -88 118 -205 150 -260 169 -291 390 -674 407 -705 11 -19 27 -48 37
-65 31 -51 837 -1449 958 -1660 63 -110 123 -211 132 -225 28 -41 90 -185 107
-247 87 -326 -95 -564 -466 -610 -65 -8 -5074 -8 -5138 1 -308 39 -480 201
-479 454 0 155 33 242 202 533 115 197 267 462 282 489 8 14 23 41 35 60 11
19 131 226 266 460 135 234 276 479 315 545 38 66 80 139 94 162 13 23 105
183 204 355 100 172 190 329 201 348 11 19 63 109 116 200 52 91 102 176 109
190 8 14 23 41 35 60 11 19 32 55 46 80 14 25 72 126 130 225 57 99 115 198
127 220 13 22 65 112 115 200 51 88 101 175 111 193 244 426 284 482 404 567
126 89 260 112 390 66z"/>
<path d="M3442 5909 c-73 -36 -125 -104 -269 -354 -22 -38 -108 -187 -191
-330 -82 -143 -275 -476 -427 -740 -153 -264 -285 -493 -295 -510 -98 -172
-416 -723 -429 -745 -5 -8 -41 -69 -78 -135 -71 -124 -288 -498 -304 -525 -5
-8 -55 -96 -113 -195 -57 -99 -172 -299 -256 -445 -322 -557 -343 -599 -343
-701 0 -91 56 -143 184 -173 56 -14 371 -16 2594 -16 2741 0 2600 -2 2697 52
102 57 106 177 13 353 -17 33 -123 218 -234 410 -112 193 -215 370 -228 395
-14 25 -56 97 -93 160 -37 63 -78 133 -90 155 -49 87 -484 842 -499 865 -16
25 -19 31 -60 105 -12 22 -32 56 -43 75 -11 19 -139 240 -283 490 -145 250
-272 471 -283 490 -12 19 -43 73 -69 119 -65 114 -53 93 -457 791 -151 262
-184 312 -238 362 -76 70 -132 83 -206 47z m264 -797 c24 -16 43 -74 77 -232
20 -91 39 -187 43 -215 3 -27 8 -59 10 -70 2 -11 7 -42 10 -70 3 -27 8 -53 10
-56 16 -27 24 -491 11 -664 -7 -102 -10 -120 -31 -225 -51 -256 -82 -428 -91
-517 -6 -62 -6 -63 33 -110 22 -27 46 -65 53 -86 11 -31 23 -42 69 -63 146
-69 457 -228 561 -286 99 -57 343 -210 374 -235 6 -4 66 -46 135 -92 241 -164
473 -334 552 -407 70 -64 71 -71 26 -224 -22 -74 -47 -143 -56 -153 -25 -28
-83 -18 -278 47 -307 103 -444 161 -654 277 -202 113 -348 210 -455 304 -16
15 -52 46 -80 70 -27 24 -61 53 -75 65 -14 12 -63 55 -110 94 -47 39 -87 73
-90 76 -3 3 -29 23 -58 44 -48 35 -56 37 -95 30 -60 -11 -108 -12 -135 -2 -18
6 -46 -9 -157 -85 -170 -116 -329 -218 -470 -301 -198 -116 -733 -376 -990
-480 -49 -20 -99 -41 -110 -45 -35 -16 -56 -21 -102 -27 l-44 -5 -86 88 c-167
172 -168 161 42 349 248 222 377 318 591 446 209 125 369 199 579 271 225 77
362 127 427 156 40 18 49 28 58 61 6 21 26 62 46 91 l35 53 -6 108 c-4 60 -8
117 -10 128 -23 120 -23 684 -1 950 2 19 6 78 10 130 3 52 8 113 11 135 6 51
14 132 21 215 3 36 10 94 15 130 6 36 13 83 15 105 14 105 47 171 91 180 15 3
69 16 118 28 101 25 145 30 161 19z"/>
<path d="M3431 2842 c-22 -20 -43 -50 -46 -65 -28 -111 91 -210 192 -160 112
54 109 210 -5 254 -13 5 -41 9 -62 9 -32 0 -47 -7 -79 -38z"/>
</g>
</svg>
