<?xml version="1.0" encoding="utf-8"?>
<!-- Generator: Adobe Illustrator 24.1.1, SVG Export Plug-In . SVG Version: 6.00 Build 0)  -->
<svg version="1.1" id="f5a94683-4cb2-4f24-bce0-de065da33602"
	 xmlns="http://www.w3.org/2000/svg" xmlns:xlink="http://www.w3.org/1999/xlink" x="0px" y="0px" viewBox="0 0 604 212.1"
	 style="enable-background:new 0 0 604 212.1;" xml:space="preserve">
<style type="text/css">
	.st0{fill:#F0FF9C;stroke:#5A85BD;stroke-width:2.312;stroke-miterlimit:10;}
	.st1{fill:url(#SVGID_1_);}
	.st2{fill:#EE7C2B;}
	.st3{fill:#FFFFFF;}
	.st4{fill:url(#SVGID_2_);}
	.st5{clip-path:url(#SVGID_4_);}
	.st6{fill:#3FD969;}
	.st7{fill:#5A85BD;}
	.st8{fill:none;stroke:#000000;stroke-width:1.716;stroke-miterlimit:10;}
	.st9{fill:none;stroke:#EF3B39;stroke-width:7;}
	.st10{fill:none;stroke:#3FD969;stroke-width:7;}
	.st11{fill:url(#SVGID_5_);}
	.st12{fill:#231F20;}
</style>
<circle class="st0" cx="526.7" cy="106.5" r="15.7"/>
<linearGradient id="SVGID_1_" gradientUnits="userSpaceOnUse" x1="67.2238" y1="699.0018" x2="288.5821" y2="699.0018" gradientTransform="matrix(-0.963 0.27 0.27 0.963 394.104 -625.211)">
	<stop  offset="0.273" style="stop-color:#F0FF9C"/>
	<stop  offset="1" style="stop-color:#F0FF9C;stop-opacity:0"/>
</linearGradient>
<polygon class="st1" points="285.7,57.3 529.3,106 342.9,189.1 "/>
<g>
	<polygon class="st2" points="526.7,100.1 526.8,107.4 522.5,108.7 522.4,101.3 	"/>
	<polygon class="st3" points="526.9,100.2 527,107.6 522.7,108.9 522.6,101.5 	"/>
	<polygon class="st3" points="523.5,101.6 523.6,109 523.5,109 523.4,101.7 	"/>
	<polygon class="st2" points="523.4,101.8 523.5,109.1 523.5,109 523.4,101.7 	"/>
	<polygon class="st2" points="527.1,100.3 527.1,107.7 522.8,109 522.8,101.6 	"/>
	<path class="st2" d="M528.2,100.5l0.1,7.4c0-0.2-0.2-0.4-0.5-0.4c-0.3-0.1-0.7-0.1-1,0l-0.1-7.4c0.3-0.1,0.7-0.1,1,0
		C528,100.1,528.2,100.3,528.2,100.5z"/>
	<path class="st3" d="M527.8,100.5l0.1,7.4c0-0.1-0.1-0.2-0.3-0.3c-0.2,0-0.4,0-0.6,0l-0.1-7.4c0.2-0.1,0.4-0.1,0.6,0
		C527.7,100.2,527.8,100.3,527.8,100.5z"/>
	<polygon class="st3" points="527.1,100.7 527.2,108.1 527,108.1 526.9,100.7 	"/>
	<path class="st2" d="M527.5,100.5l0.1,7.4c0-0.1-0.1-0.1-0.1-0.1c-0.1,0-0.2,0-0.3,0l-0.1-7.4c0.1,0,0.2,0,0.3,0
		C527.4,100.3,527.5,100.4,527.5,100.5z"/>
	<path class="st3" d="M527.2,100.7l0.1,7.4c0,0,0,0,0,0L527.2,100.7C527.1,100.7,527.2,100.7,527.2,100.7z"/>
	<path class="st2" d="M527.2,100.7l0.1,7.4c0,0,0,0,0,0.1L527.2,100.7C527.1,100.8,527.2,100.7,527.2,100.7z"/>
	<path class="st2" d="M527.1,100.8l0.1,7.4c-0.1,0.1-0.1,0.2-0.2,0.3L527,101C527,101,527.1,100.9,527.1,100.8z"/>
	<path class="st3" d="M526.9,100.7l0.1,7.4c-0.1,0-0.1,0-0.2,0c-0.2,0.1-0.4,0.3-0.7,0.5l-0.1-7.4c0.2-0.2,0.4-0.3,0.7-0.5
		C526.8,100.7,526.9,100.7,526.9,100.7z"/>
	<polygon class="st3" points="525.7,101.5 525.8,108.9 525.8,108.9 525.7,101.5 	"/>
	<polygon class="st3" points="525.7,101.5 525.8,108.9 525.6,109 525.5,101.6 	"/>
	<polygon class="st2" points="525.9,101.6 525.9,109 525.7,109 525.7,101.7 	"/>
	<polygon class="st2" points="525.9,101.7 526,109.1 525.9,109 525.9,101.6 	"/>
	<polygon class="st3" points="525.9,101.7 526,109.1 525.8,109.1 525.7,101.8 	"/>
	<polygon class="st3" points="525.7,101.8 525.8,109.1 525.7,109 525.7,101.7 	"/>
	<polygon class="st2" points="525.7,101.9 525.8,109.2 525.7,109.2 525.6,101.9 	"/>
	<path class="st3" d="M526.1,101.2c-0.1,0.1-0.2,0.2-0.3,0.3v0.2l0,0l0.1,7.1c0.1-0.1,0.2-0.2,0.3-0.3L526.1,101.2z"/>
	<polygon class="st2" points="525.6,101.8 525.6,109.2 525.6,109.2 525.5,101.8 	"/>
	<path class="st3" d="M525.5,101.6l0.1,7.4c-0.2,0-0.5,0-0.7-0.1c-0.3,0-0.5,0-0.8,0c-0.2,0-0.5,0-0.6,0.1l-0.1-7.4
		c0.1,0,0.4,0,0.6-0.1c0.3,0,0.5,0,0.8,0C525,101.6,525.4,101.6,525.5,101.6z"/>
	<polygon class="st3" points="526.1,101.7 526.2,109.1 526.2,109 526.1,101.6 	"/>
	<polygon class="st3" points="526.2,101.8 526.2,109.1 526.2,109.1 526.1,101.7 	"/>
	<path class="st2" d="M527,101l0.1,7.4c-0.1,0.1-0.2,0.2-0.4,0.3c-0.2,0.1-0.3,0.2-0.4,0.3l-0.1-7.4c0.1-0.1,0.3-0.2,0.4-0.3
		C526.7,101.3,526.8,101.2,527,101z"/>
	<path class="st2" d="M521.9,109.1l-0.1-7.4c0-0.2,0.2-0.3,0.6-0.4l0.1,7.4C522.1,108.8,521.9,109,521.9,109.1z"/>
	<path class="st3" d="M522.3,109.1l-0.1-7.4c0,0,0-0.1,0.1-0.1c0.1-0.1,0.2-0.1,0.3-0.1l0.1,7.4c-0.1,0-0.2,0.1-0.3,0.1
		C522.4,109,522.4,109.1,522.3,109.1z"/>
	<path class="st2" d="M525.5,101.8l0.1,7.4c-0.1,0-0.5,0-0.8,0l-0.1-7.4C525,101.9,525.4,101.8,525.5,101.8z"/>
	<polygon class="st2" points="525.6,101.9 525.7,109.2 525.6,109.2 525.6,101.8 	"/>
	<path class="st3" d="M526.6,102.1l0.1,7.4c-0.1-0.1-0.3-0.2-0.4-0.3l-0.1-7.4C526.3,101.9,526.5,102,526.6,102.1z"/>
	<path class="st2" d="M526,102.2l0.1,7.4c-0.1-0.1-0.2-0.2-0.2-0.3l-0.1-7.4C525.8,102,525.9,102.1,526,102.2z"/>
	<polygon class="st2" points="527.1,102.7 527.1,110.1 527,110.1 526.9,102.8 	"/>
	<path class="st3" d="M527.1,102.6l0.1,7.4c-0.2-0.2-0.3-0.4-0.5-0.5l-0.1-7.4C526.8,102.2,526.9,102.4,527.1,102.6z"/>
	<path class="st3" d="M527.1,102.6l0.1,7.4c0,0,0,0,0,0L527.1,102.6C527.1,102.6,527.1,102.6,527.1,102.6z"/>
	<polygon class="st3" points="527.1,103 527.2,110.4 522.8,109.2 522.8,101.9 	"/>
	<path class="st2" d="M526.4,102.5l0.1,7.4c-0.1-0.1-0.3-0.2-0.4-0.3l-0.1-7.4C526.1,102.3,526.2,102.4,526.4,102.5z"/>
	<path class="st2" d="M526.8,102.7l0.1,7.4c-0.1,0-0.3-0.1-0.4-0.2l-0.1-7.4C526.5,102.6,526.7,102.7,526.8,102.7z"/>
	<polygon class="st2" points="527,103.1 527.1,110.5 522.7,109.4 522.6,102 	"/>
	<path class="st2" d="M524.7,101.9l0.1,7.4c-0.3,0-1,0-1.2,0l-0.1-7.4C523.7,101.8,524.5,101.9,524.7,101.9z"/>
	<path class="st2" d="M526.9,102.8l0.1,7.4c0,0,0,0-0.1,0c0,0-0.1,0-0.1,0l-0.1-7.4C526.8,102.7,526.8,102.7,526.9,102.8
		C526.9,102.8,526.9,102.8,526.9,102.8z"/>
	<polygon class="st3" points="526.8,103.3 526.9,110.7 522.5,109.5 522.4,102.2 	"/>
	<path class="st2" d="M522.6,102l0.1,0v-0.4c-0.1,0-0.2,0.1-0.2,0.1l0.1,7.4c0,0,0,0,0.1-0.1L522.6,102z"/>
	<path class="st2" d="M527.1,102.6C527.1,102.7,527.1,102.7,527.1,102.6l-0.2,0.2c0,0,0,0-0.1,0c0,0-0.1,0-0.1,0
		c-0.1,0-0.3-0.1-0.4-0.2c-0.1-0.1-0.3-0.2-0.4-0.3c-0.1-0.1-0.2-0.2-0.2-0.3l-0.1,0l-0.1,0h0c-0.1,0-0.5,0-0.8,0s-1,0-1.2,0
		c0,0-0.1,0-0.1,0c-0.1,0,0,0-0.1-0.1l-0.1-0.1l0.1,0c0.1,0,0.4,0,0.6-0.1c0.3,0,0.5,0,0.8,0c0.2,0,0.5,0.1,0.7,0.1l0.2-0.1l0,0
		c0.1-0.1,0.2-0.2,0.3-0.3c0.2-0.2,0.4-0.3,0.7-0.5c0.1,0,0.1-0.1,0.2,0l0.2,0c0,0,0,0,0,0.1c-0.1,0.1-0.1,0.2-0.2,0.3
		c-0.1,0.1-0.2,0.2-0.4,0.3c-0.2,0.1-0.3,0.2-0.4,0.3l0,0.1l0,0c0.2,0.1,0.3,0.2,0.4,0.3C526.8,102.2,526.9,102.4,527.1,102.6z
		 M525.7,101.8l0.2,0l-0.1-0.1L525.7,101.8L525.7,101.8"/>
	<polygon class="st3" points="525.7,101.7 525.9,101.6 525.9,101.7 525.7,101.8 	"/>
	<path class="st2" d="M523.6,101.8l0.1,7.4c0,0-0.1,0-0.1,0c-0.1,0,0,0-0.1-0.1l-0.1-7.4C523.4,101.8,523.4,101.8,523.6,101.8
		C523.5,101.8,523.5,101.8,523.6,101.8z"/>
	<path class="st3" d="M522.8,101.9l0.1,7.4c-0.1,0-0.2-0.1-0.2-0.1l-0.1-7.4C522.6,101.8,522.6,101.8,522.8,101.9z"/>
	<polygon class="st2" points="535.9,102.4 535.9,109.7 532.6,108.9 532.5,101.5 	"/>
	<polygon class="st3" points="535.4,102.7 535.5,110.1 532.2,109.2 532.1,101.9 	"/>
	<polygon class="st3" points="535.9,102.4 535.4,102.7 532.1,101.9 532.5,101.5 	"/>
	<polygon class="st2" points="532.5,101.5 532.6,108.9 532.2,109.2 532.1,101.9 	"/>
	<path class="st2" d="M522.3,109.1l-0.1-7.4c0,0.1,0.1,0.2,0.4,0.2l0.1,7.4C522.5,109.3,522.4,109.2,522.3,109.1z"/>
	<path class="st3" d="M521.9,109.1l-0.1-7.4v0c0,0.2,0.2,0.3,0.6,0.4l0.1,7.4C522.1,109.4,521.9,109.3,521.9,109.1L521.9,109.1z"/>
	<polygon class="st2" points="536.7,101.6 536.8,109 535.9,109.7 535.9,102.4 	"/>
	<polygon class="st2" points="535,103.1 535.1,110.5 531.8,109.6 531.7,102.2 	"/>
	<polygon class="st3" points="534.6,103.5 534.7,110.8 531.4,110 531.3,102.6 	"/>
	<polygon class="st3" points="535,103.1 534.6,103.5 531.3,102.6 531.7,102.2 	"/>
	<polygon class="st2" points="531.7,102.2 531.8,109.6 531.4,110 531.3,102.6 	"/>
	<path class="st2" d="M527.1,102.6l0.1,7.4c0,0,0,0-0.1,0L527.1,102.6C527.1,102.7,527.1,102.7,527.1,102.6z"/>
	<polygon class="st3" points="535.9,102.4 535.9,109.7 535.5,110.1 535.4,102.7 	"/>
	<polygon class="st2" points="528.3,102.9 528.3,110.3 528.3,107.8 528.2,100.5 	"/>
	<polygon class="st2" points="527.6,102.9 527.6,110.3 527.6,107.8 527.5,100.5 	"/>
	<polygon class="st3" points="527.8,102.9 527.9,110.3 527.9,107.8 527.8,100.5 	"/>
	<path class="st3" d="M527.6,102.9l0.1,7.4c0,0.1,0,0.1-0.1,0.2l-0.1-7.4C527.5,103,527.6,103,527.6,102.9z"/>
	<path class="st3" d="M527.4,103l0.1,7.4c-0.1,0-0.2,0-0.3,0l-0.1-7.4C527.2,103.1,527.3,103.1,527.4,103z"/>
	<path class="st3" d="M527.5,100.5l0.1,2.4c0,0.1,0,0.1-0.1,0.2c-0.1,0-0.2,0-0.3,0l-4.4-1.2c-0.1,0-0.2-0.1-0.2-0.1
		s0.1-0.1,0.2-0.1l4.3-1.3c0.1,0,0.2,0,0.3,0C527.4,100.3,527.5,100.4,527.5,100.5z M527.1,102.7
		C527.1,102.7,527.2,102.7,527.1,102.7c-0.1-0.3-0.3-0.4-0.5-0.6c-0.1-0.1-0.3-0.2-0.4-0.3l0,0l0-0.1c0.1-0.1,0.3-0.2,0.4-0.3
		c0.1-0.1,0.3-0.2,0.4-0.3c0.1-0.1,0.1-0.2,0.2-0.3c0-0.1,0-0.1,0-0.1l-0.2,0c-0.1,0-0.1,0-0.2,0c-0.2,0.1-0.4,0.3-0.7,0.5
		c-0.1,0.1-0.2,0.2-0.3,0.3l0,0l-0.2,0.1c-0.2,0-0.5,0-0.7-0.1c-0.3,0-0.5,0-0.8,0c-0.2,0-0.5,0-0.6,0.1l-0.1,0l0.1,0.1
		c0,0,0,0,0.1,0.1c0,0,0.1,0,0.1,0c0.2,0,0.9,0,1.2,0s0.7,0,0.8,0h0l0.1,0l0.1,0c0.1,0.1,0.2,0.2,0.2,0.3c0.1,0.1,0.2,0.2,0.4,0.3
		c0.1,0.1,0.3,0.2,0.4,0.2c0,0,0.1,0,0.1,0c0,0,0,0,0.1,0L527.1,102.7"/>
	<polygon class="st2" points="535.4,102.7 535.5,110.1 535.1,110.5 535,103.1 	"/>
	<path class="st2" d="M527.8,102.9l0.1,7.4c0,0.1,0,0.1-0.1,0.2c-0.2,0.1-0.5,0.2-0.8,0.1l-0.1-7.4c0.3,0.1,0.5,0.1,0.8-0.1
		C527.8,103,527.8,103,527.8,102.9z"/>
	<polygon class="st2" points="534.2,103.8 534.2,111.2 530.9,110.3 530.9,103 	"/>
	<polygon class="st3" points="533.8,104.2 533.8,111.6 530.5,110.7 530.4,103.3 	"/>
	<polygon class="st3" points="534.2,103.8 533.8,104.2 530.4,103.3 530.9,103 	"/>
	<polygon class="st2" points="530.9,103 530.9,110.3 530.5,110.7 530.4,103.3 	"/>
	<path class="st3" d="M528.3,102.9l0.1,7.4c0,0.2-0.2,0.4-0.4,0.4c-0.3,0.1-0.7,0.1-1,0l-0.1-7.4c0.3,0.1,0.7,0.1,1,0
		C528.1,103.3,528.3,103.1,528.3,102.9z"/>
	<polygon class="st2" points="533.3,104.6 533.4,112 530.1,111.1 530,103.7 	"/>
	<polygon class="st3" points="532.9,104.9 533,112.3 529.7,111.4 529.6,104.1 	"/>
	<polygon class="st3" points="533.3,104.6 532.9,104.9 529.6,104.1 530,103.7 	"/>
	<polygon class="st2" points="530,103.7 530.1,111.1 529.7,111.4 529.6,104.1 	"/>
	<polygon class="st2" points="532.5,105.3 532.6,112.7 529.2,111.8 529.2,104.4 	"/>
	<polygon class="st3" points="532.5,105.3 532.1,105.7 528.7,104.8 529.2,104.4 	"/>
	<polygon class="st3" points="532.1,105.7 532.1,113.1 528.8,112.2 528.7,104.8 	"/>
	<polygon class="st2" points="529.2,104.4 529.2,111.8 528.8,112.2 528.7,104.8 	"/>
	<polygon class="st2" points="531.6,106.1 531.7,113.4 528.4,112.6 528.3,105.2 	"/>
	<polygon class="st3" points="531.6,106.1 531.2,106.4 527.9,105.5 528.3,105.2 	"/>
	<polygon class="st3" points="531.2,106.4 531.3,113.8 528,112.9 527.9,105.5 	"/>
	<polygon class="st2" points="528.3,105.2 528.4,112.6 528,112.9 527.9,105.5 	"/>
	<path class="st2" d="M535.9,102.4l-3.3-0.9l-0.4,0.4l3.3,0.9l-0.4,0.4l-3.3-0.9l-0.4,0.4l3.3,0.9l-0.4,0.4l-3.3-0.9l-0.4,0.4
		l3.3,0.9l-0.4,0.4l-3.3-0.9l-0.4,0.4l3.3,0.9l-0.4,0.4l-3.3-0.9l-0.4,0.4l3.3,0.9l-0.4,0.4l-3.3-0.9l-0.4,0.4l3.3,0.9l-1.6,1.4
		l-12.6-3.3l7.1-6.2l12.6,3.3L535.9,102.4z M527.8,103.3c0.3-0.1,0.4-0.2,0.4-0.4l-0.1-2.4c0-0.2-0.2-0.4-0.5-0.4
		c-0.3-0.1-0.7-0.1-1,0l-4.3,1.3c-0.4,0.1-0.6,0.3-0.6,0.4s0.2,0.3,0.6,0.4l4.4,1.2C527.1,103.4,527.5,103.4,527.8,103.3"/>
	<path class="st3" d="M528.3,102.9c0,0.2-0.2,0.4-0.4,0.4c-0.3,0.1-0.7,0.1-1,0l-4.4-1.2c-0.4-0.1-0.6-0.2-0.6-0.4s0.2-0.3,0.6-0.4
		l4.3-1.3c0.3-0.1,0.7-0.1,1,0c0.3,0.1,0.5,0.2,0.5,0.4L528.3,102.9z M527,103.1c0.3,0.1,0.5,0.1,0.8-0.1c0.1,0,0.1-0.1,0.1-0.2
		l-0.1-2.4c0-0.1-0.1-0.2-0.3-0.3c-0.2,0-0.4,0-0.6,0l-4.3,1.3c-0.1,0-0.2,0.1-0.3,0.1c-0.1,0.1,0,0.3,0.3,0.3L527,103.1"/>
	<path class="st2" d="M527.8,102.9c0,0.1,0,0.1-0.1,0.2c-0.2,0.1-0.5,0.2-0.8,0.1l-4.4-1.2c-0.3-0.1-0.4-0.2-0.3-0.3
		c0.1-0.1,0.2-0.1,0.3-0.1l4.3-1.3c0.2-0.1,0.4-0.1,0.6,0c0.2,0,0.3,0.1,0.3,0.3L527.8,102.9z M527.4,103.1c0.1,0,0.1-0.1,0.1-0.2
		l-0.1-2.4c0-0.1-0.1-0.1-0.1-0.1c-0.1,0-0.2,0-0.3,0l-4.3,1.3c-0.1,0-0.2,0.1-0.2,0.1s0.1,0.1,0.2,0.1l4.4,1.2
		C527.2,103.1,527.3,103.1,527.4,103.1"/>
	<polygon class="st3" points="535,103.1 535.1,110.5 534.7,110.8 534.6,103.5 	"/>
	<polygon class="st2" points="534.6,103.5 534.7,110.8 534.2,111.2 534.2,103.8 	"/>
	<polygon class="st3" points="534.2,103.8 534.2,111.2 533.8,111.6 533.8,104.2 	"/>
	<polygon class="st2" points="533.8,104.2 533.8,111.6 533.4,112 533.3,104.6 	"/>
	<polygon class="st3" points="533.3,104.6 533.4,112 533,112.3 532.9,104.9 	"/>
	<polygon class="st2" points="532.9,104.9 533,112.3 532.6,112.7 532.5,105.3 	"/>
	<polygon class="st3" points="532.5,105.3 532.6,112.7 532.1,113.1 532.1,105.7 	"/>
	<polygon class="st2" points="532.1,105.7 532.1,113.1 531.7,113.4 531.6,106.1 	"/>
	<polygon class="st3" points="531.6,106.1 531.7,113.4 531.3,113.8 531.2,106.4 	"/>
	<polygon class="st2" points="531.2,106.4 531.3,113.8 529.7,115.2 529.6,107.8 	"/>
	<polygon class="st2" points="529.6,107.8 529.7,115.2 517.1,111.9 517,104.5 	"/>
</g>
<circle class="st0" cx="130.1" cy="121.7" r="15.7"/>
<linearGradient id="SVGID_2_" gradientUnits="userSpaceOnUse" x1="468.9473" y1="485.7104" x2="543.9138" y2="485.7104" gradientTransform="matrix(-0.8076 0.5897 0.5897 0.8076 224.2914 -549.0693)">
	<stop  offset="0.273" style="stop-color:#F0FF9C"/>
	<stop  offset="1" style="stop-color:#F0FF9C;stop-opacity:0"/>
</linearGradient>
<polygon class="st4" points="42.4,124 132.4,120.3 100.6,203.8 85,182.5 58.6,146.3 "/>
<g>
	<polygon class="st2" points="130.2,114.9 130.3,122.3 126,123.6 125.9,116.2 	"/>
	<polygon class="st3" points="130.4,115.1 130.5,122.5 126.2,123.8 126.1,116.4 	"/>
	<polygon class="st3" points="127,116.5 127.1,123.9 126.9,123.9 126.9,116.5 	"/>
	<polygon class="st2" points="126.9,116.6 127,124 126.9,123.9 126.9,116.5 	"/>
	<polygon class="st2" points="130.5,115.2 130.6,122.6 126.3,123.9 126.2,116.5 	"/>
	<path class="st2" d="M131.7,115.3l0.1,7.4c0-0.2-0.2-0.4-0.5-0.4c-0.3-0.1-0.7-0.1-1,0l-0.1-7.4c0.3-0.1,0.7-0.1,1,0
		C131.5,115,131.7,115.1,131.7,115.3z"/>
	<path class="st3" d="M131.3,115.3l0.1,7.4c0-0.1-0.1-0.2-0.3-0.3c-0.2,0-0.4,0-0.6,0l-0.1-7.4c0.2-0.1,0.4-0.1,0.6,0
		C131.2,115.1,131.3,115.2,131.3,115.3z"/>
	<polygon class="st3" points="130.6,115.6 130.7,123 130.5,122.9 130.4,115.5 	"/>
	<path class="st2" d="M131,115.3l0.1,7.4c0-0.1-0.1-0.1-0.1-0.1c-0.1,0-0.2,0-0.3,0l-0.1-7.4c0.1,0,0.2,0,0.3,0
		C130.9,115.2,131,115.3,131,115.3z"/>
	<path class="st3" d="M130.6,115.6l0.1,7.4c0,0,0,0,0,0L130.6,115.6C130.6,115.6,130.6,115.6,130.6,115.6z"/>
	<path class="st2" d="M130.6,115.6l0.1,7.4c0,0,0,0,0,0.1L130.6,115.6C130.6,115.6,130.6,115.6,130.6,115.6z"/>
	<path class="st2" d="M130.6,115.7l0.1,7.4c-0.1,0.1-0.1,0.2-0.2,0.3l-0.1-7.4C130.5,115.8,130.6,115.7,130.6,115.7z"/>
	<path class="st3" d="M130.4,115.5l0.1,7.4c-0.1,0-0.1,0-0.2,0c-0.2,0.1-0.4,0.3-0.7,0.5l-0.1-7.4c0.2-0.2,0.4-0.3,0.7-0.5
		C130.3,115.5,130.3,115.5,130.4,115.5z"/>
	<polygon class="st3" points="129.2,116.4 129.3,123.8 129.3,123.8 129.2,116.4 	"/>
	<polygon class="st3" points="129.2,116.4 129.3,123.8 129.1,123.8 129,116.5 	"/>
	<polygon class="st2" points="129.3,116.5 129.4,123.9 129.2,123.9 129.2,116.5 	"/>
	<polygon class="st2" points="129.4,116.6 129.5,124 129.4,123.9 129.3,116.5 	"/>
	<polygon class="st3" points="129.4,116.6 129.5,124 129.3,124 129.2,116.6 	"/>
	<polygon class="st3" points="129.2,116.6 129.3,124 129.2,123.9 129.2,116.5 	"/>
	<polygon class="st2" points="129.2,116.7 129.3,124.1 129.2,124.1 129.1,116.7 	"/>
	<path class="st3" d="M129.6,116.1c-0.1,0.1-0.2,0.2-0.3,0.3v0.2l0,0l0.1,7.1c0.1-0.1,0.2-0.2,0.3-0.3L129.6,116.1z"/>
	<polygon class="st2" points="129,116.7 129.1,124.1 129.1,124.1 129,116.7 	"/>
	<path class="st3" d="M129,116.5l0.1,7.4c-0.2,0-0.5,0-0.7-0.1c-0.3,0-0.5,0-0.8,0c-0.2,0-0.5,0-0.6,0.1l-0.1-7.4
		c0.1,0,0.4,0,0.6-0.1c0.3,0,0.5,0,0.8,0C128.5,116.4,128.9,116.5,129,116.5z"/>
	<polygon class="st3" points="129.6,116.6 129.7,124 129.7,123.9 129.6,116.5 	"/>
	<polygon class="st3" points="129.6,116.6 129.7,124 129.7,124 129.6,116.6 	"/>
	<path class="st2" d="M130.4,115.9l0.1,7.4c-0.1,0.1-0.2,0.2-0.4,0.3c-0.2,0.1-0.3,0.2-0.4,0.3l-0.1-7.4c0.1-0.1,0.3-0.2,0.4-0.3
		C130.2,116.2,130.3,116,130.4,115.9z"/>
	<path class="st2" d="M125.4,124l-0.1-7.4c0-0.2,0.2-0.3,0.6-0.4l0.1,7.4C125.6,123.7,125.4,123.8,125.4,124z"/>
	<path class="st3" d="M125.8,124l-0.1-7.4c0,0,0-0.1,0.1-0.1c0.1-0.1,0.2-0.1,0.3-0.1l0.1,7.4c-0.1,0-0.2,0.1-0.3,0.1
		C125.9,123.9,125.8,123.9,125.8,124z"/>
	<polygon class="st2" points="129.1,116.7 129.2,124.1 129.1,124.1 129,116.7 	"/>
	<path class="st3" d="M130.1,116.9l0.1,7.4c-0.1-0.1-0.3-0.2-0.4-0.3l-0.1-7.4C129.8,116.7,129.9,116.8,130.1,116.9z"/>
	<path class="st2" d="M129.5,117l0.1,7.4c-0.1-0.1-0.2-0.2-0.2-0.3l-0.1-7.4C129.3,116.8,129.4,116.9,129.5,117z"/>
	<polygon class="st2" points="130.5,117.5 130.6,124.9 130.4,125 130.4,117.6 	"/>
	<path class="st3" d="M130.6,117.5l0.1,7.4c-0.2-0.2-0.3-0.4-0.5-0.5l-0.1-7.4C130.2,117.1,130.4,117.3,130.6,117.5z"/>
	<path class="st3" d="M130.6,117.5l0.1,7.4c0,0,0,0,0,0L130.6,117.5C130.6,117.5,130.6,117.5,130.6,117.5z"/>
	<polygon class="st3" points="130.6,117.9 130.7,125.3 126.3,124.1 126.2,116.7 	"/>
	<path class="st2" d="M129,116.7l0.1,7.4c-0.1,0-0.5,0-0.8,0s-1,0-1.2,0l-0.1-7.4c0.2,0,0.9,0,1.2,0S128.9,116.7,129,116.7z"/>
	<path class="st2" d="M129.9,117.4l0.1,7.4c-0.1-0.1-0.3-0.2-0.4-0.3l-0.1-7.4C129.6,117.2,129.7,117.3,129.9,117.4z"/>
	<path class="st2" d="M130.2,117.6l0.1,7.4c-0.1,0-0.3-0.1-0.4-0.2l-0.1-7.4C130,117.4,130.2,117.5,130.2,117.6z"/>
	<polygon class="st2" points="130.5,118 130.5,125.4 126.2,124.2 126.1,116.9 	"/>
	<path class="st2" d="M130.4,117.6l0.1,7.4c0,0,0,0-0.1,0c0,0-0.1,0-0.1,0l-0.1-7.4C130.3,117.6,130.3,117.6,130.4,117.6
		C130.3,117.6,130.4,117.6,130.4,117.6z"/>
	<polygon class="st3" points="130.3,118.2 130.3,125.6 126,124.4 125.9,117 	"/>
	<path class="st2" d="M126.1,116.9l0.1,0v-0.4c-0.1,0-0.2,0.1-0.2,0.1l0.1,7.4c0,0,0,0,0.1-0.1L126.1,116.9z"/>
	<path class="st2" d="M127.1,116.7l0.1,7.4c0,0-0.1,0-0.1,0c-0.1,0,0,0-0.1-0.1l-0.1-7.4C126.9,116.6,126.9,116.7,127.1,116.7
		C127,116.7,127,116.7,127.1,116.7z"/>
	<path class="st2" d="M130.6,117.5l0.1,7.4c0,0,0,0-0.1,0L130.6,117.5C130.6,117.5,130.6,117.5,130.6,117.5z"/>
	<polygon class="st2" points="131,117.8 131.1,125.1 131.1,122.7 131,115.3 	"/>
	<path class="st3" d="M131,115.3l0.1,2.4c0,0.1,0,0.1-0.1,0.2c-0.1,0-0.2,0-0.3,0l-4.4-1.2c-0.1,0-0.2-0.1-0.2-0.1s0.1-0.1,0.2-0.1
		l4.3-1.3c0.1,0,0.2,0,0.3,0C130.9,115.2,131,115.3,131,115.3z M130.5,117.5C130.6,117.5,130.6,117.5,130.5,117.5
		c-0.1-0.3-0.3-0.4-0.5-0.6c-0.1-0.1-0.3-0.2-0.4-0.3l0,0l0-0.1c0.1-0.1,0.3-0.2,0.4-0.3c0.1-0.1,0.3-0.2,0.4-0.3
		c0.1-0.1,0.1-0.2,0.2-0.3c0-0.1,0-0.1,0-0.1l-0.2,0c-0.1,0-0.1,0-0.2,0c-0.2,0.1-0.4,0.3-0.7,0.5c-0.1,0.1-0.2,0.2-0.3,0.3l0,0
		l-0.2,0.1c-0.2,0-0.5,0-0.7-0.1c-0.3,0-0.5,0-0.8,0c-0.2,0-0.5,0-0.6,0.1l-0.1,0l0.1,0.1c0,0,0,0,0.1,0.1c0,0,0.1,0,0.1,0
		c0.2,0,0.9,0,1.2,0s0.7,0,0.8,0h0l0.1,0l0.1,0c0.1,0.1,0.2,0.2,0.2,0.3c0.1,0.1,0.2,0.2,0.4,0.3c0.1,0.1,0.3,0.2,0.4,0.2
		c0,0,0.1,0,0.1,0c0,0,0,0,0.1,0L130.5,117.5"/>
	<path class="st3" d="M126.2,116.7l0.1,7.4c-0.1,0-0.2-0.1-0.2-0.1l-0.1-7.4C126,116.7,126.1,116.7,126.2,116.7z"/>
	<polygon class="st3" points="131.3,117.8 131.4,125.1 131.3,122.7 131.3,115.3 	"/>
	<path class="st3" d="M131,117.8l0.1,7.4c0,0.1,0,0.1-0.1,0.2l-0.1-7.4C131,117.9,131,117.8,131,117.8z"/>
	<path class="st3" d="M130.9,117.9l0.1,7.4c-0.1,0-0.2,0-0.3,0l-0.1-7.4C130.7,117.9,130.8,117.9,130.9,117.9z"/>
	<path class="st2" d="M131.3,117.8c0,0.1,0,0.1-0.1,0.2c-0.2,0.1-0.5,0.2-0.8,0.1l-4.4-1.2c-0.3-0.1-0.4-0.2-0.3-0.3
		c0.1-0.1,0.2-0.1,0.3-0.1l4.3-1.3c0.2-0.1,0.4-0.1,0.6,0c0.2,0,0.3,0.1,0.3,0.3L131.3,117.8z M130.9,117.9c0.1,0,0.1-0.1,0.1-0.2
		l-0.1-2.4c0-0.1-0.1-0.1-0.1-0.1c-0.1,0-0.2,0-0.3,0l-4.3,1.3c-0.1,0-0.2,0.1-0.2,0.1s0.1,0.1,0.2,0.1l4.4,1.2
		C130.7,117.9,130.8,117.9,130.9,117.9"/>
	<path class="st2" d="M125.8,124l-0.1-7.4c0,0.1,0.1,0.2,0.4,0.2l0.1,7.4C125.9,124.2,125.8,124.1,125.8,124z"/>
	<polygon class="st2" points="131.7,117.8 131.8,125.1 131.7,122.7 131.7,115.3 	"/>
	<path class="st2" d="M131.3,117.8l0.1,7.4c0,0.1,0,0.1-0.1,0.2c-0.2,0.1-0.5,0.2-0.8,0.1l-0.1-7.4c0.3,0.1,0.5,0.1,0.8-0.1
		C131.3,117.9,131.3,117.8,131.3,117.8z"/>
	<path class="st3" d="M131.7,117.8c0,0.2-0.2,0.4-0.4,0.4c-0.3,0.1-0.7,0.1-1,0l-4.4-1.2c-0.4-0.1-0.6-0.2-0.6-0.4s0.2-0.3,0.6-0.4
		l4.3-1.3c0.3-0.1,0.7-0.1,1,0c0.3,0.1,0.5,0.2,0.5,0.4L131.7,117.8z M130.5,118c0.3,0.1,0.5,0.1,0.8-0.1c0.1,0,0.1-0.1,0.1-0.2
		l-0.1-2.4c0-0.1-0.1-0.2-0.3-0.3c-0.2,0-0.4,0-0.6,0l-4.3,1.3c-0.1,0-0.2,0.1-0.3,0.1c-0.1,0.1,0,0.3,0.3,0.3L130.5,118"/>
	<polygon class="st2" points="139.3,117.2 139.4,124.6 136.1,123.7 136,116.3 	"/>
	<polygon class="st3" points="138.9,117.6 139,125 135.7,124.1 135.6,116.7 	"/>
	<polygon class="st3" points="139.3,117.2 138.9,117.6 135.6,116.7 136,116.3 	"/>
	<polygon class="st2" points="136,116.3 136.1,123.7 135.7,124.1 135.6,116.7 	"/>
	<path class="st3" d="M125.4,124l-0.1-7.4v0c0,0.2,0.2,0.3,0.6,0.4l0.1,7.4C125.6,124.3,125.4,124.2,125.4,124L125.4,124z"/>
	<polygon class="st2" points="138.5,118 138.6,125.3 135.3,124.5 135.2,117.1 	"/>
	<polygon class="st3" points="138.1,118.3 138.2,125.7 134.8,124.8 134.8,117.5 	"/>
	<polygon class="st3" points="138.5,118 138.1,118.3 134.8,117.5 135.2,117.1 	"/>
	<polygon class="st2" points="135.2,117.1 135.3,124.5 134.8,124.8 134.8,117.5 	"/>
	<polygon class="st2" points="137.7,118.7 137.7,126.1 134.4,125.2 134.3,117.8 	"/>
	<polygon class="st3" points="137.2,119.1 137.3,126.4 134,125.6 133.9,118.2 	"/>
	<polygon class="st3" points="137.7,118.7 137.2,119.1 133.9,118.2 134.3,117.8 	"/>
	<polygon class="st2" points="134.3,117.8 134.4,125.2 134,125.6 133.9,118.2 	"/>
	<path class="st3" d="M131.7,117.8l0.1,7.4c0,0.2-0.2,0.4-0.4,0.4c-0.3,0.1-0.7,0.1-1,0l-0.1-7.4c0.3,0.1,0.7,0.1,1,0
		C131.6,118.1,131.7,118,131.7,117.8z"/>
	<polygon class="st2" points="136.8,119.4 136.9,126.8 133.6,125.9 133.5,118.6 	"/>
	<polygon class="st3" points="136.4,119.8 136.5,127.2 133.1,126.3 133.1,118.9 	"/>
	<polygon class="st3" points="136.8,119.4 136.4,119.8 133.1,118.9 133.5,118.6 	"/>
	<polygon class="st2" points="133.5,118.6 133.6,125.9 133.1,126.3 133.1,118.9 	"/>
	<polygon class="st2" points="136,120.2 136,127.6 132.7,126.7 132.6,119.3 	"/>
	<polygon class="st3" points="136,120.2 135.5,120.6 132.2,119.7 132.6,119.3 	"/>
	<polygon class="st3" points="135.5,120.6 135.6,127.9 132.3,127 132.2,119.7 	"/>
	<polygon class="st2" points="132.6,119.3 132.7,126.7 132.3,127 132.2,119.7 	"/>
	<polygon class="st2" points="135.1,120.9 135.2,128.3 131.9,127.4 131.8,120 	"/>
	<polygon class="st3" points="135.1,120.9 134.7,121.3 131.4,120.4 131.8,120 	"/>
	<polygon class="st3" points="134.7,121.3 134.8,128.7 131.5,127.8 131.4,120.4 	"/>
	<polygon class="st2" points="131.8,120 131.9,127.4 131.5,127.8 131.4,120.4 	"/>
	<path class="st2" d="M139.3,117.2l-3.3-0.9l-0.4,0.4l3.3,0.9l-0.4,0.4l-3.3-0.9l-0.4,0.4l3.3,0.9l-0.4,0.4l-3.3-0.9l-0.4,0.4
		l3.3,0.9l-0.4,0.4l-3.3-0.9l-0.4,0.4l3.3,0.9l-0.4,0.4l-3.3-0.9l-0.4,0.4l3.3,0.9l-0.4,0.4l-3.3-0.9l-0.4,0.4l3.3,0.9l-1.6,1.4
		l-12.6-3.3l7.1-6.2l12.6,3.3L139.3,117.2z M131.3,118.2c0.3-0.1,0.4-0.2,0.4-0.4l-0.1-2.4c0-0.2-0.2-0.4-0.5-0.4
		c-0.3-0.1-0.7-0.1-1,0l-4.3,1.3c-0.4,0.1-0.6,0.3-0.6,0.4s0.2,0.3,0.6,0.4l4.4,1.2C130.6,118.3,131,118.3,131.3,118.2"/>
	<polygon class="st3" points="129.2,116.5 129.3,116.5 129.4,116.6 129.2,116.6 	"/>
	<polygon class="st2" points="140.2,116.5 140.2,123.9 139.4,124.6 139.3,117.2 	"/>
	<path class="st2" d="M130.6,117.5C130.6,117.5,130.6,117.5,130.6,117.5l-0.2,0.2c0,0,0,0-0.1,0c0,0-0.1,0-0.1,0
		c-0.1,0-0.3-0.1-0.4-0.2c-0.1-0.1-0.3-0.2-0.4-0.3c-0.1-0.1-0.2-0.2-0.2-0.3l-0.1,0l-0.1,0h0c-0.1,0-0.5,0-0.8,0s-1,0-1.2,0
		c0,0-0.1,0-0.1,0c-0.1,0,0,0-0.1-0.1l-0.1-0.1l0.1,0c0.1,0,0.4,0,0.6-0.1c0.3,0,0.5,0,0.8,0c0.2,0,0.5,0.1,0.7,0.1l0.2-0.1l0,0
		c0.1-0.1,0.2-0.2,0.3-0.3c0.2-0.2,0.4-0.3,0.7-0.5c0.1,0,0.1-0.1,0.2,0l0.2,0c0,0,0,0,0,0.1c-0.1,0.1-0.1,0.2-0.2,0.3
		c-0.1,0.1-0.2,0.2-0.4,0.3c-0.2,0.1-0.3,0.2-0.4,0.3l0,0.1l0,0c0.2,0.1,0.3,0.2,0.4,0.3C130.2,117.1,130.4,117.3,130.6,117.5z
		 M129.2,116.6l0.2,0l-0.1-0.1L129.2,116.6L129.2,116.6"/>
	<polygon class="st3" points="139.3,117.2 139.4,124.6 139,125 138.9,117.6 	"/>
	<polygon class="st2" points="138.9,117.6 139,125 138.6,125.3 138.5,118 	"/>
	<polygon class="st3" points="138.5,118 138.6,125.3 138.2,125.7 138.1,118.3 	"/>
	<polygon class="st2" points="138.1,118.3 138.2,125.7 137.7,126.1 137.7,118.7 	"/>
	<polygon class="st3" points="137.7,118.7 137.7,126.1 137.3,126.4 137.2,119.1 	"/>
	<polygon class="st2" points="137.2,119.1 137.3,126.4 136.9,126.8 136.8,119.4 	"/>
	<polygon class="st3" points="136.8,119.4 136.9,126.8 136.5,127.2 136.4,119.8 	"/>
	<polygon class="st2" points="136.4,119.8 136.5,127.2 136,127.6 136,120.2 	"/>
	<polygon class="st3" points="136,120.2 136,127.6 135.6,127.9 135.5,120.6 	"/>
	<polygon class="st2" points="135.5,120.6 135.6,127.9 135.2,128.3 135.1,120.9 	"/>
	<polygon class="st3" points="135.1,120.9 135.2,128.3 134.8,128.7 134.7,121.3 	"/>
	<polygon class="st2" points="134.7,121.3 134.8,128.7 133.2,130.1 133.1,122.7 	"/>
	<polygon class="st2" points="133.1,122.7 133.2,130.1 120.6,126.7 120.5,119.4 	"/>
</g>
<g>
	<g>
		<defs>
			<polygon id="SVGID_3_" points="87.9,189.1 42,57.1 469,32.9 514.8,164.9 			"/>
		</defs>
		<clipPath id="SVGID_4_">
			<use xlink:href="#SVGID_3_"  style="overflow:visible;"/>
		</clipPath>
		<g class="st5">
			<path class="st6" d="M177.9,149.6c-1.3,0.1-2.7,0.1-4.1,0.2c-35.5,1.1-72.4-9.7-89.8-26.3l-0.7-0.6c-12.3-11.8-33-31.4-7.6-45.1
				c30.9-16.7,45.2-21.9,109.4-25.6c15-0.8,32.6-1.6,53.8-2.4c109.7-4.1,184.5,23.9,219.3,40.9c27.1,13.3,48.6,47.6,33.5,64.5
				c-4.6,5.1-12.1,8.1-22.4,9c-1.7,0.1-3.4,0.3-5.1,0.4c-15.4,0.9-28.6-0.5-39.2-4c-18-6-27.9-18.4-26.3-33.1
				c1.1-11-11.8-21.8-35.5-29.6c-21.2-7-47.1-10.3-70.3-9c-1.8,0.1-3.6,0.2-5.4,0.4c-35.9,3.2-38.4,10.6-41.8,20.7
				c-1.3,4.3-3.1,8.4-5.5,12.2C230.1,138,207.5,147.9,177.9,149.6 M183.3,49.1c-24.2,1.4-41.9,3-56.2,5.5
				c-22.9,4-36.9,10.1-57.7,21.3C41.3,91,63,111.7,76,124.1l0.7,0.6c9.3,8.9,23.8,16.3,41.8,21.4c18.2,5,37.1,7.3,56,6.8
				c1.6,0,3.2-0.1,4.7-0.2c32.9-1.9,57.9-12.6,69.1-29.9c2.4-3.9,4.3-8.1,5.6-12.5c3.4-10.2,5.1-15.3,35.6-18
				c1.6-0.1,3.2-0.3,4.8-0.3c21.7-1.1,43.4,1.7,64.1,8.3c21.8,7.2,33.7,17.1,32.6,27.1c-1.6,15.7,9.3,29,29.2,35.7
				c12.4,4.2,27.7,5.8,45.4,4.8c1.9-0.1,3.8-0.2,5.7-0.4c13-1.1,22.8-4.9,28.3-11c7.5-8.3,7.2-21.2-0.7-35.4
				c-8-13.8-19.8-25-34-32.1c-35.8-17.5-112.9-46.3-226.3-42.1C216.7,47.5,198.7,48.2,183.3,49.1"/>
		</g>
	</g>
</g>
<polygon class="st7" points="111.3,104 65.7,116 65.7,107.7 111.3,95.6 "/>
<polyline class="st8" points="65.7,145.7 65.7,107.7 111.3,95.6 111.3,133.6 "/>
<polygon class="st2" points="500.4,78.8 454.9,83.8 454.9,75.4 500.4,70.4 "/>
<polyline class="st8" points="454.9,113.4 454.9,75.4 500.4,70.4 500.4,108.4 "/>
<line class="st9" x1="547.1" y1="95.4" x2="571.3" y2="119.7"/>
<line class="st9" x1="571.3" y1="95.4" x2="547.1" y2="119.7"/>
<polyline class="st10" points="153.5,117 159,125 181,107.9 "/>
<linearGradient id="SVGID_5_" gradientUnits="userSpaceOnUse" x1="500.187" y1="4257.7075" x2="472.0473" y2="4285.8472" gradientTransform="matrix(1 0 0 1 0 -4231.5742)">
	<stop  offset="0" style="stop-color:#FFC22A"/>
	<stop  offset="0.129" style="stop-color:#FCAF28"/>
	<stop  offset="0.341" style="stop-color:#F89525"/>
	<stop  offset="0.533" style="stop-color:#F58524"/>
	<stop  offset="0.685" style="stop-color:#F48023"/>
	<stop  offset="0.765" style="stop-color:#EF7A23"/>
	<stop  offset="0.867" style="stop-color:#E06A25"/>
	<stop  offset="0.98" style="stop-color:#C85027"/>
	<stop  offset="1" style="stop-color:#C34B27"/>
</linearGradient>
<path class="st11" d="M486.1,14.2c-2.1,0.1-4,1.3-4.9,3.2l-14.5,25.1c-1.2,1.8-1.3,4-0.3,5.9c1.1,1.8,3.2,2.8,5.3,2.7h29
	c2.1,0.1,4.1-0.9,5.3-2.7c1-1.9,0.8-4.1-0.3-5.9L491,17.4l0,0C490.1,15.5,488.2,14.3,486.1,14.2L486.1,14.2z"/>
<path class="st3" d="M486.1,16.6c-1.2,0.1-2.3,0.9-2.8,2l-14.5,25.1c-0.4,0.7-0.6,1.4-0.7,2.2c0,1.6,1.3,2.7,3.5,2.7h29
	c2.2,0,3.5-1.1,3.5-2.7c0-0.8-0.3-1.5-0.7-2.2l-14.5-25.1C488.4,17.5,487.4,16.7,486.1,16.6z M471.6,47c-0.7,0.1-1.3-0.1-1.8-0.6
	c-0.2-0.6-0.1-1.3,0.3-1.8l14.5-25.1c0.4-0.8,1-1.2,1.4-1.2s1,0.5,1.4,1.2L502,44.5c0.4,0.5,0.5,1.2,0.3,1.8
	c-0.4,0.5-1.1,0.7-1.8,0.6L471.6,47L471.6,47z"/>
<path class="st12" d="M497.9,42.5c-1.8-1.4-3.7-2.7-5.6-3.9c-1.3-0.8-2.6-1.4-4-2.1c-0.1,0-0.2-0.1-0.2-0.1c-0.1-0.4-0.3-0.7-0.6-1
	c0-0.8,0.5-2.8,0.7-3.9c0.2-1.5,0.2-3,0.1-4.5c-0.1-1-0.4-2.7-0.6-3.3s-0.2-0.7-0.5-0.8c-0.4,0-0.8,0.1-1.2,0.3
	c-0.3,0.1-0.6-0.1-0.8,0.8c-0.3,2.2-0.5,4.5-0.6,6.8c0,1.5,0.1,3,0.2,4.5c0,0.1,0,0.2,0,0.2c-0.3,0.3-0.5,0.7-0.6,1.1
	c-0.8,0.4-2.7,1-3.7,1.4c-1.4,0.6-2.7,1.3-3.9,2.2c-0.8,0.6-2.1,1.7-2.5,2.1s-0.5,0.5-0.4,0.8c0.2,0.3,0.5,0.6,0.8,0.9
	c0.2,0.2,0.2,0.6,1.1,0.3c2.1-0.9,4.2-1.8,6.2-2.9c1.3-0.7,2.6-1.6,3.8-2.4c0.1,0,0.1-0.1,0.2-0.1c0.2,0,0.4,0.1,0.5,0.1
	c0.2,0,0.4,0,0.6-0.1c0.7,0.4,2.2,1.8,3.1,2.5c1.2,0.9,2.5,1.7,3.9,2.3c1,0.4,2.1,0.8,3.1,1.1c0.6,0.2,0.7,0.2,0.9,0
	c0.2-0.4,0.3-0.8,0.4-1.2C498.3,43.3,498.5,43.2,497.9,42.5z M485.3,37c0-0.5,0.4-0.8,0.8-0.8s0.8,0.4,0.8,0.8
	c0,0.5-0.4,0.8-0.8,0.8C485.7,37.8,485.3,37.5,485.3,37C485.3,37,485.3,37,485.3,37L485.3,37z"/>
<path d="M518.3,38.3l-1.9-5.8c0,0,0,0,0,0c0.5-0.2,0.9-0.6,1.1-1c0.3-0.5,0.4-1.1,0.4-1.6v-1.5c0-0.6-0.1-1.1-0.4-1.6
	c-0.3-0.4-0.7-0.8-1.1-1c-0.6-0.2-1.2-0.4-1.8-0.3h-3.1v12.9h1.9v-5.5h1.1l1.6,5.5H518.3z M513.5,27.3h1.3c0.2,0,0.4,0,0.6,0.1
	c0.2,0.1,0.3,0.2,0.4,0.4c0.1,0.2,0.1,0.4,0.1,0.7v1.4c0,0.2,0,0.4-0.1,0.6c-0.1,0.2-0.2,0.3-0.4,0.4c-0.2,0.1-0.4,0.1-0.6,0.1h-1.3
	L513.5,27.3z"/>
<path d="M523.5,38.2c0.4-0.2,0.7-0.5,0.9-0.9c0.2-0.4,0.3-0.9,0.3-1.4v-4.4c0-0.5-0.1-1-0.3-1.4c-0.2-0.4-0.5-0.7-0.9-0.9
	c-0.9-0.4-2-0.4-2.9,0c-0.4,0.2-0.7,0.5-0.9,0.9c-0.2,0.4-0.3,0.9-0.3,1.4v4.4c0,0.5,0.1,1,0.3,1.4c0.2,0.4,0.5,0.7,0.9,0.9
	c0.5,0.2,1,0.3,1.5,0.3C522.5,38.5,523,38.4,523.5,38.2z M521.5,36.4c-0.1-0.2-0.2-0.4-0.2-0.7v-4.1c0-0.2,0.1-0.5,0.2-0.6
	c0.1-0.2,0.4-0.2,0.6-0.2c0.2,0,0.4,0.1,0.6,0.2c0.1,0.2,0.2,0.4,0.2,0.6v4.1c0,0.2-0.1,0.5-0.2,0.7c-0.1,0.2-0.4,0.2-0.6,0.2
	C521.8,36.7,521.6,36.6,521.5,36.4z"/>
<path d="M528.5,26.4h-1.9v2.7h-0.9v1.8h0.9v5c0,0.7,0.1,1.3,0.6,1.8c0.5,0.4,1.1,0.7,1.7,0.6h0.9v-1.9h-0.7c-0.2,0-0.3-0.1-0.5-0.2
	c-0.1-0.2-0.2-0.3-0.2-0.5v-4.8h1.3v-1.8h-1.3V26.4z"/>
<path d="M536.4,31.5c0-0.5-0.1-1-0.3-1.4c-0.2-0.4-0.5-0.7-0.9-0.9c-0.9-0.4-2-0.4-2.9,0c-0.4,0.2-0.7,0.5-0.9,0.9
	c-0.2,0.4-0.3,0.9-0.3,1.4v4.4c0,0.5,0.1,1,0.3,1.4c0.2,0.4,0.5,0.7,0.9,0.9c0.5,0.2,1,0.3,1.5,0.3c0.5,0,1-0.1,1.5-0.3
	c0.4-0.2,0.7-0.5,0.9-0.9c0.2-0.4,0.3-0.9,0.3-1.4L536.4,31.5z M534.5,35.8c0,0.2-0.1,0.5-0.2,0.7c-0.1,0.2-0.4,0.2-0.6,0.2
	c-0.2,0-0.4-0.1-0.6-0.2c-0.1-0.2-0.2-0.4-0.2-0.7v-4.1c0-0.2,0.1-0.5,0.2-0.6c0.1-0.2,0.4-0.2,0.6-0.2c0.2,0,0.4,0.1,0.6,0.2
	c0.1,0.2,0.2,0.4,0.2,0.6L534.5,35.8z"/>
<path d="M542.3,31L542.3,31l0.1-2c-0.5,0-1,0.2-1.5,0.5c-0.4,0.3-0.7,0.6-0.9,1v-1.3h-2v9.2h2v-5.6c0-0.5,0.2-1,0.5-1.3
	c0.4-0.3,0.9-0.5,1.4-0.5L542.3,31L542.3,31z"/>
<polygon points="549.8,38.3 549.8,25.4 547.8,25.4 547.8,31.1 545.6,31.1 545.6,25.4 543.7,25.4 543.7,38.3 545.6,38.3 545.6,32.9 
	547.8,32.9 547.8,38.3 "/>
<path d="M557.1,38.3v-6.7c0-0.5-0.1-1-0.3-1.5c-0.2-0.4-0.5-0.7-1-0.9c-0.5-0.2-1-0.3-1.5-0.3c-0.7,0-1.5,0.2-2,0.7
	c-0.5,0.5-0.8,1.3-0.7,2h1.9c0-0.3,0.1-0.5,0.2-0.7c0.2-0.2,0.4-0.3,0.6-0.3c0.3,0,0.5,0.1,0.7,0.3c0.2,0.2,0.3,0.5,0.2,0.7v1.1
	h-0.9c-0.8-0.1-1.6,0.2-2.2,0.8c-0.5,0.6-0.8,1.5-0.8,2.3c-0.1,0.7,0.1,1.4,0.6,2c0.4,0.5,1,0.7,1.6,0.7c0.3,0,0.7-0.1,1-0.2
	c0.3-0.2,0.5-0.4,0.6-0.7c0,0,0-0.1,0-0.2v0.9L557.1,38.3L557.1,38.3z M554.9,36.5c-0.2,0.2-0.5,0.3-0.8,0.3c-0.2,0-0.5-0.1-0.7-0.2
	c-0.2-0.2-0.2-0.5-0.2-0.7c0-0.4,0.1-0.8,0.3-1.1c0.2-0.3,0.5-0.4,0.9-0.4h0.8v1.2C555.2,35.9,555.1,36.3,554.9,36.5L554.9,36.5z"/>
<polygon points="563.7,30.8 563.7,29.1 558.8,29.1 558.8,30.9 561.7,30.9 558.6,36.6 558.6,38.3 563.9,38.3 563.9,36.5 560.7,36.5 
	"/>
<path d="M569.7,29.3c-0.5-0.2-1-0.3-1.5-0.3c-0.7,0-1.5,0.2-2,0.7c-0.5,0.5-0.8,1.3-0.7,2h1.9c0-0.3,0.1-0.5,0.2-0.7
	c0.2-0.2,0.4-0.3,0.6-0.3c0.3,0,0.5,0.1,0.7,0.3c0.2,0.2,0.3,0.5,0.2,0.7v1.1h-0.9c-0.8-0.1-1.6,0.2-2.2,0.8
	c-0.5,0.6-0.8,1.5-0.8,2.3c-0.1,0.7,0.1,1.4,0.6,2c0.4,0.5,1,0.7,1.6,0.7c0.3,0,0.7-0.1,1-0.2c0.3-0.2,0.5-0.4,0.6-0.7
	c0,0,0-0.1,0-0.2v0.9h1.9v-6.7c0-0.5-0.1-1-0.3-1.5C570.4,29.8,570.1,29.5,569.7,29.3z M568.8,36.5c-0.2,0.2-0.5,0.3-0.8,0.3
	c-0.2,0-0.5-0.1-0.7-0.2c-0.2-0.2-0.2-0.5-0.2-0.7c0-0.4,0.1-0.8,0.3-1.1c0.2-0.3,0.5-0.4,0.9-0.4h0.8v1.2
	C569.1,35.9,569,36.3,568.8,36.5z"/>
<path d="M576.7,31h0.4l0.1,0v-2c-0.5,0-1,0.2-1.5,0.5c-0.4,0.3-0.7,0.6-0.9,1v-1.3h-2v9.2h2v-5.6c0-0.5,0.2-1,0.5-1.3
	C575.6,31.1,576.2,30.9,576.7,31z"/>
<path d="M581.8,25.4v4.8c-0.2-0.3-0.4-0.6-0.6-0.9c-0.6-0.5-1.5-0.6-2.2-0.1c-0.3,0.2-0.5,0.6-0.7,0.9c-0.2,0.5-0.2,1-0.2,1.4v4.2
	c0,0.5,0.1,1,0.2,1.4c0.1,0.4,0.4,0.7,0.7,0.9c0.3,0.2,0.7,0.3,1,0.3c0.4,0,0.8-0.1,1.2-0.4c0.3-0.2,0.5-0.6,0.6-0.9v1.2h2V25.4
	H581.8z M581.7,36.2c-0.1,0.2-0.2,0.3-0.3,0.4c-0.1,0.1-0.3,0.1-0.5,0.1c-0.3,0-0.5-0.1-0.7-0.3c-0.2-0.2-0.3-0.5-0.2-0.8v-3.8
	c0-0.3,0.1-0.6,0.2-0.8c0.2-0.2,0.4-0.3,0.7-0.3c0.2,0,0.3,0,0.5,0.1c0.1,0.1,0.2,0.2,0.3,0.4c0.1,0.2,0.1,0.4,0.1,0.6v3.8
	C581.8,35.8,581.8,36,581.7,36.2L581.7,36.2z"/>
<polygon points="511.9,40.6 511.6,40.6 511.6,44.7 512.1,44.7 512.1,43 513.9,43 513.9,42.4 512.1,42.4 512.1,41.1 514.2,41.1 
	514.2,40.6 512.1,40.6 "/>
<path d="M519.1,40.7c-0.2-0.1-0.4-0.2-0.7-0.2h-1.6v4.2h0.6v-1.6h1c0.2,0,0.5,0,0.7-0.2c0.2-0.1,0.3-0.3,0.4-0.4
	c0.2-0.4,0.2-0.9,0-1.3C519.4,41,519.3,40.9,519.1,40.7z M519,42.2c0,0.1-0.1,0.2-0.2,0.3c-0.1,0.1-0.2,0.1-0.3,0.1h-1v-1.4h1
	c0.2,0,0.5,0.1,0.6,0.3c0.1,0.1,0.1,0.2,0.1,0.4C519.1,42,519.1,42.1,519,42.2z"/>
<polygon points="523.7,43.8 522.7,40.6 522,40.6 523.4,44.7 523.9,44.7 525.3,40.6 524.6,40.6 "/>
<path d="M533.1,42.8c0.2-0.1,0.3-0.2,0.4-0.4c0.1-0.2,0.2-0.4,0.2-0.6c0-0.2,0-0.4-0.2-0.6c-0.1-0.2-0.2-0.3-0.4-0.4
	c-0.2-0.1-0.4-0.2-0.6-0.1h-1.6v4.2h0.6V43h0.9l0.9,1.8h0.7l-1-1.8C533,42.9,533.1,42.9,533.1,42.8z M531.4,41.1h1.1
	c0.1,0,0.2,0,0.3,0.1c0.1,0.1,0.2,0.1,0.2,0.2c0.1,0.2,0.1,0.5,0,0.7c0,0.1-0.1,0.2-0.2,0.2c-0.1,0.1-0.2,0.1-0.3,0.1h-1.1
	L531.4,41.1z"/>
<path d="M537.7,40.6l-1.5,4.2h0.6l0.3-0.9h1.7l0.3,0.9h0.6l-1.5-4.2H537.7z M537.3,43.3l0.6-1.9l0.6,1.9H537.3z"/>
<path d="M542.8,41.6c0.1-0.1,0.2-0.3,0.3-0.3c0.1-0.1,0.3-0.1,0.4-0.1c0.1,0,0.2,0,0.4,0.1c0.1,0.1,0.2,0.1,0.3,0.2
	c0.1,0.1,0.1,0.2,0.2,0.3h0.6c0-0.2-0.1-0.5-0.3-0.6c-0.1-0.2-0.3-0.3-0.5-0.4c-0.2-0.1-0.4-0.2-0.7-0.2c-0.3,0-0.5,0.1-0.8,0.2
	c-0.2,0.1-0.4,0.3-0.5,0.5c-0.1,0.3-0.2,0.5-0.2,0.8v1.1c0,0.3,0.1,0.6,0.2,0.8c0.1,0.2,0.3,0.4,0.5,0.5l0.3,0.2h0.4
	c0.2,0,0.5-0.1,0.7-0.2c0.2-0.1,0.4-0.3,0.5-0.4c0.1-0.2,0.2-0.4,0.3-0.6h-0.6c0,0.1-0.1,0.3-0.2,0.4c-0.1,0.1-0.2,0.2-0.3,0.2
	c-0.1,0.1-0.2,0.1-0.4,0.1c-0.2,0-0.3,0-0.4-0.1c-0.1-0.1-0.2-0.2-0.3-0.3c-0.1-0.2-0.1-0.3-0.1-0.5v-1.1
	C542.7,41.9,542.8,41.7,542.8,41.6z"/>
<polygon points="548.1,40.6 547.8,40.6 547.8,44.7 548.1,44.7 548.4,44.7 550.5,44.7 550.5,44.2 548.4,44.2 548.4,43 550.2,43 
	550.2,42.4 548.4,42.4 548.4,41.1 550.5,41.1 550.5,40.6 548.4,40.6 "/>
<polygon points="555.7,41.1 556.9,41.1 556.9,44.7 557.5,44.7 557.5,41.1 558.7,41.1 558.7,40.6 555.7,40.6 "/>
<rect x="561.1" y="40.6" width="0.6" height="4.2"/>
<polygon points="566.5,43.3 565.2,40.6 564.7,40.6 564.7,44.7 565.3,44.7 565.3,41.9 566.3,44.2 566.7,44.2 567.7,41.9 567.7,44.7 
	568.2,44.7 568.2,40.6 567.7,40.6 "/>
<rect x="571.2" y="40.6" width="0.6" height="4.2"/>
<polygon points="577.3,43.7 575.4,40.6 574.8,40.6 574.8,44.7 575.4,44.7 575.4,41.7 577.4,44.7 577.9,44.7 577.9,40.6 577.3,40.6 
	"/>
<path d="M582.3,43.1h0.8v0.2c0,0.2,0,0.4-0.1,0.5c-0.1,0.1-0.2,0.3-0.3,0.3c-0.1,0.1-0.3,0.1-0.5,0.1c-0.2,0-0.3,0-0.5-0.1
	c-0.1-0.1-0.2-0.2-0.3-0.3c-0.1-0.1-0.1-0.3-0.1-0.5v-1.2c0-0.2,0-0.4,0.1-0.5c0.1-0.1,0.2-0.3,0.3-0.3c0.1-0.1,0.3-0.1,0.5-0.1
	c0.1,0,0.2,0,0.3,0.1c0.1,0.1,0.2,0.1,0.3,0.2c0.1,0.1,0.1,0.2,0.2,0.4h0.6c0-0.2-0.1-0.5-0.3-0.6c-0.1-0.2-0.3-0.3-0.5-0.4
	c-0.2-0.1-0.4-0.2-0.7-0.2c-0.3,0-0.5,0.1-0.8,0.2c-0.2,0.1-0.4,0.3-0.5,0.5c-0.1,0.3-0.2,0.5-0.2,0.8v1.2c0,0.3,0.1,0.5,0.2,0.8
	c0.1,0.2,0.3,0.4,0.5,0.5c0.2,0.1,0.5,0.2,0.8,0.2c0.3,0,0.5-0.1,0.8-0.2c0.2-0.1,0.4-0.3,0.5-0.5c0.1-0.3,0.2-0.5,0.2-0.8v-0.7
	h-1.4L582.3,43.1L582.3,43.1z"/>
</svg>
