<?xml version="1.0" encoding="utf-8"?>
<!-- Generator: Adobe Illustrator 22.1.0, SVG Export Plug-In . SVG Version: 6.00 Build 0)  -->
<svg version="1.1" id="Layer_1" xmlns="http://www.w3.org/2000/svg" xmlns:xlink="http://www.w3.org/1999/xlink" x="0px" y="0px"
	 viewBox="0 0 963 363" style="enable-background:new 0 0 963 363;" xml:space="preserve">
<style type="text/css">
	.st0{opacity:0.2;fill:none;stroke:#F2F2F2;stroke-width:2;stroke-miterlimit:10;enable-background:new    ;}
	.st1{opacity:0.83;fill:#224873;enable-background:new    ;}
	.st2{fill:none;stroke:#5A85BD;stroke-width:2;stroke-miterlimit:10;}
	.st3{fill:none;stroke:#EF3F23;stroke-width:2;stroke-miterlimit:10;}
	.st4{fill:none;stroke:#EE7C2B;stroke-width:2;stroke-miterlimit:10;}
	.st5{fill:none;stroke:#FFFFFF;stroke-width:2;stroke-miterlimit:10;}
	.st6{fill:#FFFFFF;}
	.st7{fill:none;stroke:#000000;stroke-width:2;stroke-miterlimit:10;}
	.st8{fill:#B2520E;}
</style>
<rect x="86" y="32.094" width="778" height="278.906"/>
<line class="st0" x1="116" y1="32" x2="116" y2="310"/>
<line class="st0" x1="164" y1="32" x2="164" y2="310"/>
<line class="st0" x1="212" y1="32" x2="212" y2="310"/>
<line class="st0" x1="260" y1="32" x2="260" y2="310"/>
<line class="st0" x1="308" y1="32" x2="308" y2="310"/>
<line class="st0" x1="356" y1="32" x2="356" y2="310"/>
<line class="st0" x1="404" y1="32" x2="404" y2="310"/>
<line class="st0" x1="452" y1="32" x2="452" y2="310"/>
<line class="st0" x1="500" y1="32" x2="500" y2="310"/>
<line class="st0" x1="548" y1="32" x2="548" y2="310"/>
<line class="st0" x1="596" y1="32" x2="596" y2="310"/>
<line class="st0" x1="644" y1="32" x2="644" y2="310"/>
<line class="st0" x1="692" y1="32" x2="692" y2="310"/>
<line class="st0" x1="740" y1="32" x2="740" y2="310"/>
<line class="st0" x1="788" y1="32" x2="788" y2="310"/>
<line class="st0" x1="836" y1="32" x2="836" y2="310"/>
<path class="st1" d="M86.5,216.5c15,0,16,43,30,43s24-25,36-25s30-52,42-66s28-36,38-35s22,11,25,21s17,47,27,42s32-98,48-104
	s6,16,13,21s17-61,27-61s20.5-14.406,32-14s30,0,42,0s10,30,16,32s17,36,24,38s6,29,12,34s4-20,10-20s-1,10,9,9s10-50,21-50
	s21,92,34,90s36,64,53,63s14-37,36-38s24,91.5,42,91.5s10-45.5,25-46.5s26,11,42,11s24-14,32-14s12-18,22-18s5,36,16,37s6-18,23-18
	v71h-778L86.5,216.5z"/>
<path class="st2" d="M86.5,216.5c15,0,16,43,30,43s24-25,36-25s30-52,42-66s28-36,38-35s22,11,25,21s17,47,27,42s32-98,48-104
	s6,16,13,21s17-61,27-61s20.5-14.406,32-14s30,0,42,0s10,30,16,32s17,36,24,38s6,29,12,34s4-20,10-20s-1,10,9,9s10-50,21-50
	s21,92,34,90s36,64,53,63s14-37,36-38s24,90.5,42,90.5s10-44.5,25-45.5s26,11,42,11s24-14,32-14s12-18,22-18s5,36,16,37s6-18,23-18"
	/>
<line class="st3" x1="86.5" y1="96.5" x2="863.5" y2="96.5"/>
<line class="st4" x1="87" y1="152.5" x2="864" y2="152.5"/>
<g>
	<g>
		<line class="st5" x1="327" y1="105.473" x2="327" y2="311"/>
		<g>
			<polygon class="st6" points="327,97 322.121,108.939 327,106.106 331.877,108.939 			"/>
		</g>
	</g>
</g>
<g>
	<g>
		<line class="st5" x1="426" y1="51.473" x2="426" y2="74"/>
		<g>
			<polygon class="st6" points="426,43 421.121,54.939 426,52.106 430.877,54.939 			"/>
		</g>
	</g>
</g>
<g>
	<g>
		<line class="st5" x1="561" y1="160.473" x2="561" y2="311"/>
		<g>
			<polygon class="st6" points="561,152 556.121,163.939 561,161.106 565.877,163.939 			"/>
		</g>
	</g>
</g>
<g>
	<g>
		<line class="st5" x1="342.473" y1="263" x2="545.527" y2="263"/>
		<g>
			<polygon class="st6" points="334,263 345.939,267.879 343.106,263 345.939,258.123 			"/>
		</g>
		<g>
			<polygon class="st6" points="554,263 542.061,267.879 544.894,263 542.061,258.123 			"/>
		</g>
	</g>
</g>
<g>
	<path class="st6" d="M407.199,253.154c0,0-0.392-0.229-1.174-0.688s-1.389-1.107-1.82-1.948s-0.646-1.815-0.646-2.923v-4.091
		c0-1.107,0.215-2.081,0.646-2.923c0.431-0.84,1.037-1.491,1.82-1.953c0.783-0.461,1.69-0.691,2.723-0.691
		c0.854,0,1.641,0.183,2.358,0.548c0.718,0.366,1.317,0.884,1.8,1.554c0.481,0.67,0.808,1.445,0.979,2.328h-2.143
		c-0.13-0.465-0.347-0.881-0.651-1.246c-0.304-0.366-0.661-0.647-1.071-0.846s-0.834-0.298-1.271-0.298
		c-0.608,0-1.142,0.147-1.6,0.44c-0.458,0.295-0.813,0.706-1.066,1.236c-0.253,0.529-0.379,1.146-0.379,1.851v4.091
		c0,0.697,0.126,1.313,0.379,1.846s0.608,0.945,1.066,1.236c0.458,0.29,0.991,0.436,1.6,0.436c0.444,0,0.87-0.092,1.276-0.277
		c0.407-0.184,0.762-0.457,1.066-0.82c0.304-0.361,0.521-0.792,0.651-1.291h2.143c-0.171,0.881-0.499,1.657-0.984,2.327
		s-1.087,1.188-1.805,1.554c-0.718,0.365-1.5,0.549-2.348,0.549C407.715,253.154,407.199,253.154,407.199,253.154z"/>
	<path class="st6" d="M416.653,242.356h2.092V253h-2.092V242.356z M421.811,244.366c-0.28-0.116-0.605-0.175-0.974-0.175
		c-0.663,0-1.178,0.184-1.543,0.549c-0.366,0.366-0.549,0.874-0.549,1.523l-0.215-2.051c0.328-0.637,0.752-1.13,1.271-1.482
		c0.52-0.352,1.094-0.527,1.723-0.527c0.485,0,0.924,0.069,1.318,0.21c0.393,0.14,0.736,0.347,1.03,0.62l-1.364,1.846
		C422.323,244.653,422.091,244.482,421.811,244.366z"/>
	<path class="st6" d="M427.122,252.61c-0.656-0.362-1.157-0.891-1.502-1.584c-0.345-0.694-0.518-1.529-0.518-2.507v-1.733
		c0-0.964,0.172-1.789,0.518-2.477c0.345-0.687,0.846-1.21,1.502-1.568c0.656-0.359,1.446-0.538,2.369-0.538
		s1.712,0.179,2.369,0.538c0.656,0.358,1.157,0.882,1.502,1.568c0.345,0.688,0.518,1.513,0.518,2.477v1.764
		c0,0.971-0.173,1.8-0.518,2.486c-0.346,0.688-0.846,1.212-1.502,1.574s-1.446,0.544-2.369,0.544S427.778,252.973,427.122,252.61z
		 M431.188,250.478c0.399-0.458,0.6-1.101,0.6-1.928v-1.764c0-0.827-0.2-1.466-0.6-1.917s-0.966-0.678-1.697-0.678
		s-1.297,0.227-1.697,0.678c-0.399,0.451-0.6,1.09-0.6,1.917v1.764c0,0.827,0.2,1.47,0.6,1.928s0.966,0.687,1.697,0.687
		S430.788,250.936,431.188,250.478z"/>
	<path class="st6" d="M439.673,253.154c0,0-0.275-0.063-0.826-0.186s-1.064-0.307-1.543-0.553s-0.919-0.555-1.323-0.924l1.241-1.527
		c0.574,0.438,1.145,0.766,1.712,0.984s1.128,0.328,1.682,0.328c0.827,0,1.447-0.128,1.861-0.385
		c0.414-0.256,0.621-0.641,0.621-1.153c0-0.342-0.113-0.598-0.338-0.769s-0.506-0.286-0.841-0.344
		c-0.335-0.059-0.807-0.111-1.415-0.159c-0.055,0-0.113-0.002-0.174-0.005c-0.062-0.004-0.12-0.009-0.174-0.016
		c-0.027,0-0.055-0.002-0.082-0.005c-0.027-0.004-0.055-0.005-0.082-0.005c-0.69-0.055-1.275-0.156-1.753-0.303
		c-0.479-0.147-0.876-0.422-1.195-0.826c-0.317-0.402-0.477-0.98-0.477-1.732s0.154-1.377,0.461-1.877
		c0.308-0.498,0.766-0.873,1.374-1.122c0.608-0.25,1.371-0.374,2.287-0.374c0.554,0,1.082,0.051,1.584,0.153
		c0.503,0.103,0.983,0.255,1.441,0.456c0.458,0.202,0.899,0.457,1.323,0.764l-1.261,1.528c-0.533-0.342-1.058-0.598-1.574-0.769
		c-0.517-0.171-1.021-0.257-1.513-0.257c-0.711,0-1.244,0.121-1.6,0.364c-0.355,0.242-0.533,0.606-0.533,1.092
		c0,0.287,0.101,0.502,0.303,0.646c0.201,0.143,0.456,0.239,0.764,0.287s0.745,0.089,1.313,0.123c0.041,0.007,0.083,0.01,0.128,0.01
		s0.091,0.004,0.139,0.01c0.021,0,0.041,0,0.062,0s0.041,0.004,0.062,0.011c0.745,0.048,1.379,0.147,1.902,0.298
		c0.522,0.15,0.962,0.447,1.317,0.892s0.533,1.087,0.533,1.928c0,0.766-0.164,1.399-0.492,1.902
		c-0.328,0.502-0.822,0.88-1.481,1.133c-0.66,0.253-1.489,0.38-2.487,0.38C439.987,253.154,439.673,253.154,439.673,253.154z"/>
	<path class="st6" d="M450.563,253.154c0,0-0.275-0.063-0.826-0.186s-1.064-0.307-1.543-0.553s-0.919-0.555-1.323-0.924l1.241-1.527
		c0.574,0.438,1.145,0.766,1.712,0.984s1.128,0.328,1.682,0.328c0.827,0,1.447-0.128,1.861-0.385
		c0.414-0.256,0.621-0.641,0.621-1.153c0-0.342-0.113-0.598-0.338-0.769s-0.506-0.286-0.841-0.344
		c-0.335-0.059-0.807-0.111-1.415-0.159c-0.055,0-0.113-0.002-0.174-0.005c-0.062-0.004-0.12-0.009-0.174-0.016
		c-0.027,0-0.055-0.002-0.082-0.005c-0.027-0.004-0.055-0.005-0.082-0.005c-0.69-0.055-1.275-0.156-1.753-0.303
		c-0.479-0.147-0.876-0.422-1.195-0.826c-0.317-0.402-0.477-0.98-0.477-1.732s0.154-1.377,0.461-1.877
		c0.308-0.498,0.766-0.873,1.374-1.122c0.608-0.25,1.371-0.374,2.287-0.374c0.554,0,1.082,0.051,1.584,0.153
		c0.503,0.103,0.983,0.255,1.441,0.456c0.458,0.202,0.899,0.457,1.323,0.764l-1.261,1.528c-0.533-0.342-1.058-0.598-1.574-0.769
		c-0.517-0.171-1.021-0.257-1.513-0.257c-0.711,0-1.244,0.121-1.6,0.364c-0.355,0.242-0.533,0.606-0.533,1.092
		c0,0.287,0.101,0.502,0.303,0.646c0.201,0.143,0.456,0.239,0.764,0.287s0.745,0.089,1.313,0.123c0.041,0.007,0.083,0.01,0.128,0.01
		s0.091,0.004,0.139,0.01c0.021,0,0.041,0,0.062,0s0.041,0.004,0.062,0.011c0.745,0.048,1.379,0.147,1.902,0.298
		c0.522,0.15,0.962,0.447,1.317,0.892s0.533,1.087,0.533,1.928c0,0.766-0.164,1.399-0.492,1.902
		c-0.328,0.502-0.822,0.88-1.481,1.133c-0.66,0.253-1.489,0.38-2.487,0.38C450.877,253.154,450.563,253.154,450.563,253.154z"/>
	<path class="st6" d="M458.632,238.091h2.092v2.092h-2.092V238.091z M458.632,242.356h2.092V253h-2.092V242.356z"/>
	<path class="st6" d="M463.903,242.356h2.092V253h-2.092V242.356z M470.363,246.551c0-0.752-0.195-1.334-0.584-1.744
		s-0.937-0.615-1.641-0.615c-0.684,0-1.212,0.182-1.584,0.544s-0.559,0.872-0.559,1.528l-0.215-2.051
		c0.328-0.643,0.757-1.139,1.287-1.487s1.116-0.522,1.759-0.522c1.155,0,2.049,0.377,2.682,1.133
		c0.632,0.755,0.948,1.823,0.948,3.204V253h-2.092L470.363,246.551L470.363,246.551z"/>
	<path class="st6" d="M477.012,252.677c-0.55-0.338-0.969-0.832-1.256-1.481s-0.431-1.429-0.431-2.338v-2.348
		c0-0.916,0.14-1.699,0.42-2.349s0.688-1.144,1.225-1.481c0.537-0.339,1.181-0.508,1.933-0.508c0.629,0,1.205,0.164,1.728,0.492
		c0.522,0.328,0.945,0.789,1.266,1.385l-0.215,2.174c0-0.451-0.082-0.838-0.246-1.159s-0.402-0.565-0.713-0.733
		c-0.311-0.167-0.688-0.251-1.133-0.251c-0.69,0-1.226,0.216-1.604,0.646c-0.38,0.432-0.569,1.036-0.569,1.815v2.317
		c0,0.772,0.189,1.369,0.569,1.789c0.379,0.421,0.914,0.631,1.604,0.631c0.444,0,0.822-0.087,1.133-0.262
		c0.311-0.174,0.549-0.426,0.713-0.754s0.246-0.721,0.246-1.179l0.144,2.245c-0.212,0.527-0.559,0.968-1.041,1.323
		c-0.481,0.355-1.075,0.533-1.779,0.533C478.228,253.185,477.563,253.016,477.012,252.677z M478.002,257.327
		c0,0-0.316-0.148-0.949-0.446c-0.632-0.297-1.123-0.716-1.471-1.256l1.415-1.281c0.273,0.375,0.6,0.666,0.979,0.871
		c0.38,0.205,0.778,0.308,1.195,0.308c0.8,0,1.418-0.221,1.856-0.661c0.438-0.441,0.656-1.065,0.656-1.871v-10.634h2.092v10.325
		c0,0.978-0.18,1.815-0.538,2.513c-0.359,0.697-0.88,1.227-1.564,1.589s-1.507,0.544-2.471,0.544
		C478.402,257.327,478.002,257.327,478.002,257.327z"/>
</g>
<g>
	<path class="st6" d="M403.149,75.091h10.521v1.989h-10.521V75.091z M407.363,76.311h2.092V90h-2.092V76.311z"/>
	<path class="st6" d="M415.105,75.091h2.092v2.092h-2.092V75.091z M415.105,79.356h2.092V90h-2.092V79.356z"/>
	<path class="st6" d="M420.375,79.356h2.092V90h-2.092V79.356z M426.733,83.551c0-0.752-0.185-1.334-0.554-1.744
		s-0.892-0.615-1.569-0.615c-0.684,0-1.212,0.182-1.584,0.544s-0.559,0.872-0.559,1.528l-0.215-2.051
		c0.328-0.643,0.757-1.139,1.287-1.487s1.116-0.522,1.759-0.522c0.745,0,1.381,0.169,1.907,0.507
		c0.526,0.339,0.928,0.833,1.205,1.481c0.276,0.65,0.415,1.433,0.415,2.349V90h-2.092V83.551z M433.09,83.551
		c0-0.752-0.195-1.334-0.584-1.744s-0.937-0.615-1.641-0.615c-0.649,0-1.152,0.199-1.507,0.596s-0.533,0.957-0.533,1.682
		l-0.42-2.051c0.335-0.704,0.777-1.25,1.328-1.636c0.55-0.387,1.157-0.579,1.82-0.579c0.766,0,1.42,0.169,1.964,0.507
		c0.543,0.339,0.957,0.833,1.24,1.481c0.284,0.65,0.426,1.433,0.426,2.349V90h-2.092L433.09,83.551L433.09,83.551z"/>
	<path class="st6" d="M441.242,90.154c0,0-0.349-0.186-1.046-0.555s-1.229-0.91-1.594-1.625c-0.366-0.714-0.549-1.577-0.549-2.589
		v-1.2c0-1.052,0.176-1.951,0.528-2.696c0.352-0.745,0.863-1.313,1.533-1.702s1.477-0.584,2.42-0.584
		c0.889,0,1.647,0.222,2.276,0.666s1.109,1.087,1.441,1.928c0.331,0.841,0.497,1.85,0.497,3.025v0.697h-7.178v-1.682h5.188
		c-0.062-0.868-0.286-1.544-0.672-2.025c-0.386-0.482-0.904-0.723-1.553-0.723c-0.793,0-1.407,0.26-1.84,0.779
		c-0.435,0.52-0.651,1.254-0.651,2.204v1.354c0,0.882,0.232,1.559,0.697,2.03s1.125,0.707,1.979,0.707
		c0.424,0,0.844-0.085,1.261-0.256s0.79-0.41,1.118-0.718l1.374,1.374c-0.526,0.506-1.118,0.897-1.774,1.174
		c-0.656,0.277-1.316,0.416-1.979,0.416C441.734,90.154,441.242,90.154,441.242,90.154z"/>
</g>
<g>
	<path d="M286.153,343.091h2.092V358h-2.092V343.091z M287.168,343.091h8.562v1.989h-8.562V343.091z M287.168,349.602h7.434v1.99
		h-7.434V349.602z M287.168,356.011h8.562V358h-8.562V356.011z"/>
	<path d="M298.499,347.356h2.092V358h-2.092V347.356z M304.959,351.551c0-0.752-0.195-1.334-0.584-1.744s-0.937-0.615-1.641-0.615
		c-0.684,0-1.212,0.182-1.584,0.544s-0.559,0.872-0.559,1.528l-0.215-2.051c0.328-0.643,0.757-1.139,1.287-1.487
		s1.116-0.522,1.759-0.522c1.155,0,2.049,0.377,2.682,1.133c0.632,0.755,0.948,1.823,0.948,3.204V358h-2.092L304.959,351.551
		L304.959,351.551z"/>
	<path d="M309.409,347.356h4.799v1.887h-4.799V347.356z M311.106,357.339c-0.4-0.476-0.6-1.178-0.6-2.107V344.26h2.092v10.992
		c0,0.26,0.051,0.46,0.154,0.6c0.103,0.141,0.253,0.211,0.451,0.211h1.005v1.988h-1.21
		C312.137,358.051,311.506,357.813,311.106,357.339z"/>
	<path d="M317.079,347.356h2.092V358h-2.092V347.356z M322.237,349.366c-0.28-0.116-0.605-0.175-0.974-0.175
		c-0.663,0-1.178,0.184-1.543,0.549c-0.366,0.366-0.549,0.874-0.549,1.523l-0.215-2.051c0.328-0.637,0.752-1.13,1.271-1.482
		c0.52-0.352,1.094-0.527,1.723-0.527c0.485,0,0.924,0.069,1.318,0.21c0.393,0.14,0.736,0.347,1.03,0.62l-1.364,1.846
		C322.75,349.653,322.517,349.482,322.237,349.366z"/>
	<path d="M326.502,357.339c-0.649-0.544-0.974-1.369-0.974-2.477c0-1.053,0.297-1.842,0.892-2.368s1.494-0.79,2.697-0.79h3.025
		l0.144,1.682h-3.158c-0.547,0-0.956,0.121-1.225,0.364c-0.271,0.242-0.405,0.613-0.405,1.112c0,0.54,0.18,0.94,0.538,1.2
		c0.359,0.26,0.904,0.389,1.636,0.389c0.8,0,1.396-0.085,1.789-0.256s0.59-0.438,0.59-0.8l0.215,1.497
		c-0.185,0.287-0.412,0.523-0.682,0.707c-0.27,0.186-0.583,0.323-0.938,0.416c-0.355,0.092-0.755,0.139-1.2,0.139
		C328.133,358.154,327.152,357.882,326.502,357.339z M332.05,351.253c0-0.697-0.187-1.239-0.559-1.625
		c-0.373-0.387-0.901-0.579-1.584-0.579c-0.424,0-0.839,0.064-1.246,0.194s-0.768,0.312-1.082,0.544l-1.528-1.047
		c0.403-0.484,0.935-0.862,1.594-1.133c0.66-0.27,1.393-0.404,2.2-0.404c0.882,0,1.637,0.155,2.266,0.466
		c0.629,0.312,1.107,0.763,1.436,1.354c0.328,0.592,0.492,1.305,0.492,2.138V358h-1.989L332.05,351.253L332.05,351.253z"/>
	<path d="M337.218,347.356h2.092V358h-2.092V347.356z M343.678,351.551c0-0.752-0.195-1.334-0.584-1.744s-0.937-0.615-1.641-0.615
		c-0.684,0-1.212,0.182-1.584,0.544s-0.559,0.872-0.559,1.528l-0.215-2.051c0.328-0.643,0.757-1.139,1.287-1.487
		s1.116-0.522,1.759-0.522c1.155,0,2.049,0.377,2.682,1.133c0.632,0.755,0.948,1.823,0.948,3.204V358h-2.092L343.678,351.551
		L343.678,351.551z"/>
	<path d="M351.789,358.154c0,0-0.343-0.182-1.031-0.544c-0.687-0.362-1.211-0.889-1.574-1.579s-0.543-1.524-0.543-2.502v-1.754
		c0-0.963,0.181-1.787,0.543-2.471s0.887-1.205,1.574-1.563c0.688-0.359,1.516-0.538,2.487-0.538c0.554,0,1.075,0.066,1.564,0.199
		c0.488,0.134,0.928,0.327,1.317,0.58s0.714,0.561,0.974,0.922l-1.507,1.354c-0.301-0.341-0.653-0.604-1.056-0.789
		s-0.824-0.277-1.261-0.277c-0.807,0-1.432,0.227-1.876,0.678s-0.667,1.086-0.667,1.906v1.754c0,0.841,0.221,1.49,0.661,1.948
		c0.441,0.458,1.068,0.687,1.882,0.687c0.444,0,0.868-0.099,1.271-0.297s0.752-0.479,1.046-0.841l1.507,1.456
		c-0.267,0.355-0.595,0.658-0.984,0.907c-0.39,0.25-0.829,0.439-1.318,0.569s-1.006,0.195-1.553,0.195
		C352.274,358.154,351.789,358.154,351.789,358.154z"/>
	<path d="M362.289,358.154c0,0-0.349-0.186-1.046-0.555s-1.229-0.91-1.594-1.625c-0.366-0.714-0.549-1.577-0.549-2.589v-1.2
		c0-1.052,0.176-1.951,0.528-2.696c0.352-0.745,0.863-1.313,1.533-1.702s1.477-0.584,2.42-0.584c0.889,0,1.647,0.222,2.276,0.666
		s1.109,1.087,1.441,1.928c0.331,0.841,0.497,1.85,0.497,3.025v0.697h-7.178v-1.682h5.188c-0.062-0.868-0.286-1.544-0.672-2.025
		c-0.386-0.482-0.904-0.723-1.553-0.723c-0.793,0-1.407,0.26-1.84,0.779c-0.435,0.52-0.651,1.254-0.651,2.204v1.354
		c0,0.882,0.232,1.559,0.697,2.03s1.125,0.707,1.979,0.707c0.424,0,0.844-0.085,1.261-0.256s0.79-0.41,1.118-0.718l1.374,1.374
		c-0.526,0.506-1.118,0.897-1.774,1.174c-0.656,0.277-1.316,0.416-1.979,0.416C362.781,358.154,362.289,358.154,362.289,358.154z"/>
</g>
<g>
	<path d="M878.512,88.091h2.092V103h-2.092V88.091z M879.527,88.091h8.563v1.989h-8.563V88.091z M879.527,94.602h7.434v1.99h-7.434
		V94.602z M879.527,101.011h8.563V103h-8.563V101.011z"/>
	<path d="M890.857,92.356h2.092V103h-2.092V92.356z M897.318,96.551c0-0.752-0.195-1.334-0.585-1.744s-0.937-0.615-1.641-0.615
		c-0.684,0-1.212,0.182-1.585,0.544c-0.372,0.362-0.559,0.872-0.559,1.528l-0.215-2.051c0.328-0.643,0.757-1.139,1.287-1.487
		c0.529-0.349,1.115-0.522,1.758-0.522c1.156,0,2.049,0.377,2.682,1.133c0.633,0.755,0.949,1.823,0.949,3.204V103h-2.092v-6.449
		H897.318z"/>
	<path d="M901.768,92.356h4.799v1.887h-4.799V92.356z M903.465,102.339c-0.4-0.476-0.6-1.178-0.6-2.107V89.26h2.092v10.992
		c0,0.26,0.051,0.46,0.154,0.6c0.102,0.141,0.252,0.211,0.451,0.211h1.004v1.988h-1.209
		C904.496,103.051,903.865,102.813,903.465,102.339z"/>
	<path d="M912.319,103.154c0,0-0.349-0.186-1.046-0.555s-1.229-0.91-1.594-1.625c-0.367-0.714-0.549-1.577-0.549-2.589v-1.2
		c0-1.052,0.176-1.951,0.527-2.696s0.863-1.313,1.533-1.702s1.477-0.584,2.42-0.584c0.889,0,1.647,0.222,2.276,0.666
		s1.108,1.087,1.44,1.928s0.498,1.85,0.498,3.025v0.697h-7.178v-1.682h5.188c-0.061-0.868-0.285-1.544-0.672-2.025
		c-0.386-0.482-0.903-0.723-1.553-0.723c-0.793,0-1.406,0.26-1.84,0.779c-0.436,0.52-0.652,1.254-0.652,2.204v1.354
		c0,0.882,0.232,1.559,0.697,2.03s1.125,0.707,1.979,0.707c0.424,0,0.845-0.085,1.261-0.256c0.418-0.171,0.79-0.41,1.118-0.718
		l1.374,1.374c-0.526,0.506-1.117,0.897-1.773,1.174s-1.316,0.416-1.979,0.416C912.812,103.154,912.319,103.154,912.319,103.154z"/>
	<path d="M920.697,92.356h2.092V103h-2.092V92.356z M925.854,94.366c-0.28-0.116-0.604-0.175-0.974-0.175
		c-0.664,0-1.178,0.184-1.543,0.549c-0.367,0.366-0.549,0.874-0.549,1.523l-0.216-2.051c0.328-0.637,0.752-1.13,1.271-1.482
		c0.52-0.352,1.094-0.527,1.723-0.527c0.485,0,0.925,0.069,1.317,0.21c0.393,0.14,0.736,0.347,1.031,0.62l-1.364,1.846
		C926.367,94.653,926.135,94.482,925.854,94.366z"/>
	<path d="M937.514,88.091h1.783L944.793,103h-2.256l-4.132-12.027L934.273,103h-2.256L937.514,88.091z M934.55,97.74h7.845v1.988
		h-7.845V97.74z"/>
	<path d="M946.023,92.356h4.799v1.887h-4.799V92.356z M947.721,102.339c-0.4-0.476-0.6-1.178-0.6-2.107V89.26h2.092v10.992
		c0,0.26,0.051,0.46,0.154,0.6c0.102,0.141,0.252,0.211,0.451,0.211h1.004v1.988h-1.209
		C948.752,103.051,948.121,102.813,947.721,102.339z"/>
</g>
<g>
	<path d="M878.512,143.091h2.092V158h-2.092V143.091z M879.527,143.091h8.563v1.989h-8.563V143.091z M879.527,149.602h7.434v1.99
		h-7.434V149.602z M879.527,156.011h8.563V158h-8.563V156.011z"/>
	<path d="M893.852,152.125l1.006,1.928L892.15,158h-2.318L893.852,152.125z M893.914,153.16l-3.918-5.804h2.328l3.056,4.769
		l4.03,5.875h-2.318L893.914,153.16z M894.59,151.13l2.328-3.773h2.328l-3.773,5.742L894.59,151.13z"/>
	<path d="M901.717,143.091h2.092v2.092h-2.092V143.091z M901.717,147.356h2.092V158h-2.092V147.356z"/>
	<path d="M906.167,147.356h4.799v1.887h-4.799V147.356z M907.864,157.339c-0.4-0.476-0.601-1.178-0.601-2.107V144.26h2.092v10.992
		c0,0.26,0.052,0.46,0.154,0.6c0.103,0.141,0.253,0.211,0.451,0.211h1.005v1.988h-1.21
		C908.895,158.051,908.264,157.813,907.864,157.339z"/>
	<path d="M921.691,143.091h1.784L928.972,158h-2.256l-4.132-12.027L918.451,158h-2.256L921.691,143.091z M918.729,152.74h7.844
		v1.988h-7.844V152.74z"/>
	<path d="M930.202,147.356h4.799v1.887h-4.799V147.356z M931.899,157.339c-0.4-0.476-0.601-1.178-0.601-2.107V144.26h2.092v10.992
		c0,0.26,0.052,0.46,0.154,0.6c0.103,0.141,0.253,0.211,0.451,0.211H935v1.988h-1.21
		C932.93,158.051,932.299,157.813,931.899,157.339z"/>
</g>
<g>
	<path d="M544.747,343.091h2.092V358h-2.092V343.091z M545.762,343.091h8.562v1.989h-8.562V343.091z M545.762,349.602h7.434v1.99
		h-7.434V349.602z M545.762,356.011h8.562V358h-8.562V356.011z"/>
	<path d="M560.087,352.125l1.005,1.928L558.385,358h-2.317L560.087,352.125z M560.148,353.16l-3.917-5.804h2.328l3.056,4.769
		l4.03,5.875h-2.317L560.148,353.16z M560.825,351.13l2.328-3.773h2.328l-3.773,5.742L560.825,351.13z"/>
	<path d="M567.952,343.091h2.092v2.092h-2.092V343.091z M567.952,347.356h2.092V358h-2.092V347.356z"/>
	<path d="M572.402,347.356h4.799v1.887h-4.799V347.356z M574.099,357.339c-0.4-0.476-0.6-1.178-0.6-2.107V344.26h2.092v10.992
		c0,0.26,0.051,0.46,0.154,0.6c0.103,0.141,0.253,0.211,0.451,0.211h1.005v1.988h-1.21
		C575.129,358.051,574.499,357.813,574.099,357.339z"/>
</g>
<line class="st7" x1="561" y1="311" x2="561" y2="334"/>
<line class="st7" x1="327" y1="311" x2="327" y2="334"/>
<rect x="86" y="-2" class="st8" width="777" height="34"/>
</svg>
