<svg id="a7ed06f0-c7ed-4bcb-93f7-62a038580688" data-name="Layer 1" xmlns="http://www.w3.org/2000/svg" xmlns:xlink="http://www.w3.org/1999/xlink" viewBox="0 0 604 194"><defs><style>.f385154c-4e4a-4860-a6f3-650740b4e629{fill:#231f20;}.aeddf7ab-b27c-4c3c-afea-401386f8be8b,.b306e9e6-7b36-4ab1-ac44-cc85396b1a0b{fill:#3fd969;}.aeddf7ab-b27c-4c3c-afea-401386f8be8b{opacity:0.28;}.abc9f38a-58ed-46ce-b3de-a7b46ef9c75c,.b4517e16-792b-46d5-8e9c-ac68bedb4b85,.f8144ca8-8ae6-4f13-8311-ba125f6694f1{fill:none;}.abc9f38a-58ed-46ce-b3de-a7b46ef9c75c{stroke:#3fd969;stroke-linecap:round;}.abc9f38a-58ed-46ce-b3de-a7b46ef9c75c,.b4517e16-792b-46d5-8e9c-ac68bedb4b85{stroke-width:8px;}.a4d7e74d-ccfa-4afa-bb45-bfc442822629{fill:#f0ff9c;stroke:#5a85bd;stroke-miterlimit:10;stroke-width:10px;}.f5fe288e-b892-4a35-bc59-95c5b69a37fe{fill:url(#f0019a8c-f8fa-4032-b8e1-957d69de8974);}.fcddc441-feee-4a54-998c-2f42a7705528{isolation:isolate;}.f84cf778-8f8b-4c0b-8167-58b4433e7375{fill:#ee7c2b;}.bc7ebba2-1229-42d9-a49e-c78ec45c9586{fill:#fff;}.e74d3b73-3d07-498a-a184-dccf64424983{fill:#d46e26;}.f8144ca8-8ae6-4f13-8311-ba125f6694f1{stroke:#231f20;stroke-width:20px;stroke-dasharray:20;}.b4517e16-792b-46d5-8e9c-ac68bedb4b85{stroke:#000;}.a0004054-5ef9-4dce-b44b-478bc0bb0734{fill:url(#a99fb2d7-2fbd-4764-8628-608b5845dc11);}</style><linearGradient id="f0019a8c-f8fa-4032-b8e1-957d69de8974" x1="279.751" y1="97" x2="604" y2="97" gradientUnits="userSpaceOnUse"><stop offset="0.273" stop-color="#f0ff9c"/><stop offset="1" stop-color="#f0ff9c" stop-opacity="0"/></linearGradient><linearGradient id="a99fb2d7-2fbd-4764-8628-608b5845dc11" x1="42.408" y1="-3000.833" x2="14.274" y2="-3028.967" gradientTransform="matrix(1, 0, 0, -1, 0, -2980)" gradientUnits="userSpaceOnUse"><stop offset="0" stop-color="#ffc22a"/><stop offset="0.129" stop-color="#fcaf28"/><stop offset="0.341" stop-color="#f89525"/><stop offset="0.533" stop-color="#f58524"/><stop offset="0.685" stop-color="#f48023"/><stop offset="0.765" stop-color="#ef7a23"/><stop offset="0.867" stop-color="#e06a25"/><stop offset="0.98" stop-color="#c85027"/><stop offset="1" stop-color="#c34b27"/></linearGradient><symbol id="a686cd9b-8fda-457f-aaa5-cab125160bcc" data-name="New Symbol" viewBox="0 0 27.681 24.624"><path class="f385154c-4e4a-4860-a6f3-650740b4e629" d="M21.416,17.6,18.14,14.18c-1.166-1.2-1.166-1.2-1.173-1.828s.006-.617,1.168-1.8l3.281-3.42c.484-.505.621-.373,1.112-.885A.71.71,0,0,0,21.5,5.266c-.491.512-.347.636-.838,1.148l-3.3,3.443c-1.933,1.88-2.923,1.235-3.533,1.235s-2.363-1.138-3.479-1.23L7.043,6.414C6.551,5.9,6.7,5.778,6.2,5.266a.71.71,0,0,0-1.024.983c.491.512.628.38,1.112.885l3.222,3.358c1.831,1.86,1.824,1.218,1.831,1.86s0,0-1.836,1.889L6.292,17.6c-.484.5-.621.373-1.112.885a.71.71,0,0,0,1.024.983c.491-.512.347-.636.839-1.148l3.333-3.475c1.118-.092,2.858-1.228,3.453-1.228a3.234,3.234,0,0,1,3.507,1.232l3.33,3.471c.491.512.347.636.838,1.148a.71.71,0,0,0,1.024-.983C22.037,17.968,21.9,18.1,21.416,17.6Z"/><circle class="aeddf7ab-b27c-4c3c-afea-401386f8be8b" cx="21.918" cy="5.763" r="5.763"/><circle class="aeddf7ab-b27c-4c3c-afea-401386f8be8b" cx="21.918" cy="18.861" r="5.763"/><circle class="aeddf7ab-b27c-4c3c-afea-401386f8be8b" cx="5.763" cy="5.763" r="5.763"/><circle class="aeddf7ab-b27c-4c3c-afea-401386f8be8b" cx="5.763" cy="18.861" r="5.763"/><polygon class="b306e9e6-7b36-4ab1-ac44-cc85396b1a0b" points="7.915 8.259 19.214 12.336 7.915 16.414 7.915 8.259"/><path class="f385154c-4e4a-4860-a6f3-650740b4e629" d="M8.415,8.97l9.326,3.366L8.415,15.7V8.97m-1-1.424v9.58l1.339-.483,9.327-3.366,2.606-.941-2.606-.94L8.754,8.03,7.415,7.546Z"/></symbol></defs><path class="abc9f38a-58ed-46ce-b3de-a7b46ef9c75c" d="M98.146,162.338q.243-1.125.426-2.274a41.047,41.047,0,0,0-7.305-30.673"/><path class="abc9f38a-58ed-46ce-b3de-a7b46ef9c75c" d="M120.292,156.705q.243-1.124.426-2.274a41.047,41.047,0,0,0-7.3-30.672"/><path class="abc9f38a-58ed-46ce-b3de-a7b46ef9c75c" d="M142.439,151.073q.242-1.125.425-2.275a41.049,41.049,0,0,0-7.3-30.672"/><path class="abc9f38a-58ed-46ce-b3de-a7b46ef9c75c" d="M164.585,145.44q.243-1.123.426-2.274a41.055,41.055,0,0,0-7.305-30.673"/><path class="abc9f38a-58ed-46ce-b3de-a7b46ef9c75c" d="M186.731,139.808q.243-1.125.426-2.275a41.052,41.052,0,0,0-7.305-30.672"/><path class="abc9f38a-58ed-46ce-b3de-a7b46ef9c75c" d="M208.877,134.175q.243-1.125.426-2.275A41.05,41.05,0,0,0,202,101.228"/><path class="abc9f38a-58ed-46ce-b3de-a7b46ef9c75c" d="M231.023,128.542q.243-1.123.426-2.274A41.051,41.051,0,0,0,224.144,95.6"/><path class="abc9f38a-58ed-46ce-b3de-a7b46ef9c75c" d="M253.169,122.91q.243-1.125.426-2.275a41.045,41.045,0,0,0-7.305-30.672"/><circle class="a4d7e74d-ccfa-4afa-bb45-bfc442822629" cx="291.121" cy="97.603" r="67.709"/><polygon class="f5fe288e-b892-4a35-bc59-95c5b69a37fe" points="425.369 194 279.751 96.778 428.499 0 604 0 604 194 425.369 194"/><g class="fcddc441-feee-4a54-998c-2f42a7705528"><polygon class="f84cf778-8f8b-4c0b-8167-58b4433e7375" points="292.121 73.496 292.354 97.07 278.598 101.147 278.365 77.574 292.121 73.496"/><polygon class="bc7ebba2-1229-42d9-a49e-c78ec45c9586" points="292.805 74.052 293.038 97.626 279.282 101.703 279.049 78.13 292.805 74.052"/><polygon class="f84cf778-8f8b-4c0b-8167-58b4433e7375" points="293.26 74.422 293.493 97.996 279.737 102.073 279.504 78.5 293.26 74.422"/><path class="f84cf778-8f8b-4c0b-8167-58b4433e7375" d="M295.608,96.934a6.225,6.225,0,0,0-3.254.136L292.121,73.5a6.225,6.225,0,0,1,3.254-.136Q295.491,85.147,295.608,96.934Z"/><path class="f84cf778-8f8b-4c0b-8167-58b4433e7375" d="M297.107,98.332c-.016-.638-.563-1.15-1.5-1.4q-.117-11.788-.233-23.574c.936.249,1.483.76,1.5,1.4C296.944,81.831,297.037,91.26,297.107,98.332Z"/><path class="bc7ebba2-1229-42d9-a49e-c78ec45c9586" d="M295.533,74.777l.233,23.573c-.011-.42-.319-.711-.815-.842a3.645,3.645,0,0,0-1.913.118l-.233-23.574a3.656,3.656,0,0,1,1.913-.118C295.214,74.066,295.522,74.356,295.533,74.777Z"/><path class="f84cf778-8f8b-4c0b-8167-58b4433e7375" d="M294.641,74.789l.233,23.574a.473.473,0,0,0-.362-.471,2.138,2.138,0,0,0-1.019.1l-.233-23.574a2.135,2.135,0,0,1,1.019-.1A.472.472,0,0,1,294.641,74.789Z"/><path class="bc7ebba2-1229-42d9-a49e-c78ec45c9586" d="M293.046,99.059a.67.67,0,0,0-.607.091q-.117-11.787-.233-23.574a.673.673,0,0,1,.607-.091Q292.929,87.273,293.046,99.059Z"/><path class="bc7ebba2-1229-42d9-a49e-c78ec45c9586" d="M293.046,99.059q-.117-11.787-.233-23.574c.162.022.464.044.636.085q.115,11.789.233,23.574C293.51,99.1,293.208,99.08,293.046,99.059Z"/><path class="bc7ebba2-1229-42d9-a49e-c78ec45c9586" d="M293.682,99.144q-.117-11.787-.233-23.574l.022.006L293.7,99.15Z"/><path class="bc7ebba2-1229-42d9-a49e-c78ec45c9586" d="M293.551,75.647l.233,23.574c0-.033-.024-.053-.08-.071l-.233-23.574C293.527,75.6,293.551,75.614,293.551,75.647Z"/><path class="bc7ebba2-1229-42d9-a49e-c78ec45c9586" d="M292.439,99.15a25.707,25.707,0,0,0-2.113,1.529q-.115-11.789-.233-23.574c.422-.354,1.766-1.336,2.113-1.529Q292.323,87.365,292.439,99.15Z"/><path class="bc7ebba2-1229-42d9-a49e-c78ec45c9586" d="M290.326,100.679a11.625,11.625,0,0,0-1.106,1.088l-.233-23.573a11.488,11.488,0,0,1,1.106-1.089Q290.21,88.893,290.326,100.679Z"/><path class="bc7ebba2-1229-42d9-a49e-c78ec45c9586" d="M288.987,78.194l.233,23.573a.755.755,0,0,1-.053.057l-.233-23.574A.582.582,0,0,0,288.987,78.194Z"/><polygon class="f84cf778-8f8b-4c0b-8167-58b4433e7375" points="288.463 79.15 288.696 102.723 288.565 102.727 288.332 79.153 288.463 79.15"/><path class="bc7ebba2-1229-42d9-a49e-c78ec45c9586" d="M288.934,78.25l.233,23.574a1.482,1.482,0,0,0-.553.178l-.233-23.573A1.482,1.482,0,0,1,288.934,78.25Z"/><path class="bc7ebba2-1229-42d9-a49e-c78ec45c9586" d="M281.722,102.2l-.233-23.574a.076.076,0,0,1,0-.015c.018-.068.1-.08.421-.126s1.232-.145,1.8-.184a23.458,23.458,0,0,1,2.5-.022c.613.044,1.695.155,2.171.154L288.614,102c-.476,0-1.558-.11-2.171-.153a23.2,23.2,0,0,0-2.5.022c-.568.038-1.478.138-1.8.183s-.4.058-.421.127A.066.066,0,0,0,281.722,102.2Z"/><path class="bc7ebba2-1229-42d9-a49e-c78ec45c9586" d="M290.318,78.75l.233,23.574a.305.305,0,0,0-.068-.183l-.233-23.574A.308.308,0,0,1,290.318,78.75Z"/><polygon class="bc7ebba2-1229-42d9-a49e-c78ec45c9586" points="290.357 78.937 290.59 102.511 290.517 102.459 290.284 78.885 290.357 78.937"/><path class="f84cf778-8f8b-4c0b-8167-58b4433e7375" d="M293.548,75.653a.422.422,0,0,1-.068.161,6.469,6.469,0,0,1-.594.848,6.748,6.748,0,0,1-1.25,1.064c-.392.238-1.15.644-1.386.841a.308.308,0,0,1,.068.183l.231,23.34c.288-.21.958-.571,1.32-.79a6.786,6.786,0,0,0,1.25-1.064,6.536,6.536,0,0,0,.594-.848.431.431,0,0,0,.068-.162Z"/><path class="f84cf778-8f8b-4c0b-8167-58b4433e7375" d="M289.442,78.564l.233,23.574a.751.751,0,0,0-.616.094l-.233-23.574A.759.759,0,0,1,289.442,78.564Z"/><path class="f84cf778-8f8b-4c0b-8167-58b4433e7375" d="M289.681,78.756l.233,23.573c0-.076-.085-.15-.232-.189l-.007,0-.233-23.574.007,0C289.6,78.605,289.68,78.679,289.681,78.756Z"/><path class="f84cf778-8f8b-4c0b-8167-58b4433e7375" d="M289,102.34l-.233-23.573a.144.144,0,0,1,.057-.109l.233,23.574A.141.141,0,0,0,289,102.34Z"/><path class="f84cf778-8f8b-4c0b-8167-58b4433e7375" d="M278.365,77.574l.233,23.573c-1.128.335-1.77.829-1.754,1.351l-.233-23.574C276.6,78.4,277.237,77.908,278.365,77.574Z"/><path class="bc7ebba2-1229-42d9-a49e-c78ec45c9586" d="M278.182,102.474,277.949,78.9a.461.461,0,0,1,.189-.341,2.515,2.515,0,0,1,.911-.43l.233,23.573a2.532,2.532,0,0,0-.911.43A.463.463,0,0,0,278.182,102.474Z"/><path class="bc7ebba2-1229-42d9-a49e-c78ec45c9586" d="M289.914,102.329a.146.146,0,0,1-.058.109l-.233-23.574a.144.144,0,0,0,.058-.108C289.751,85.828,289.843,95.257,289.914,102.329Z"/><path class="f84cf778-8f8b-4c0b-8167-58b4433e7375" d="M290.318,78.75l.233,23.574a.282.282,0,0,1-.034.135l-.233-23.574A.282.282,0,0,0,290.318,78.75Z"/><path class="bc7ebba2-1229-42d9-a49e-c78ec45c9586" d="M289.233,102.53c-.147-.039-.231-.113-.231-.19l-.233-23.573c0,.076.084.15.231.189Q289.116,90.744,289.233,102.53Z"/><path class="bc7ebba2-1229-42d9-a49e-c78ec45c9586" d="M289.241,102.532l-.008,0q-.117-11.787-.233-23.574l.008,0Q289.124,90.747,289.241,102.532Z"/><path class="bc7ebba2-1229-42d9-a49e-c78ec45c9586" d="M289.856,102.438a.75.75,0,0,1-.615.094q-.117-11.787-.233-23.574a.743.743,0,0,0,.615-.094C289.693,85.936,289.786,95.366,289.856,102.438Z"/><path class="f84cf778-8f8b-4c0b-8167-58b4433e7375" d="M288.332,79.153l.233,23.574c-.346.027-1.643.089-2.48.092s-3.232-.056-3.745-.106a1.915,1.915,0,0,1-.3-.046c-.166-.044-.124-.1-.155-.162l-.233-23.573c.031.063-.011.117.155.162a2.043,2.043,0,0,0,.3.046c.513.049,2.913.109,3.745.105S287.986,79.18,288.332,79.153Z"/><path class="f84cf778-8f8b-4c0b-8167-58b4433e7375" d="M289.045,79.288l.233,23.574a2.027,2.027,0,0,1-.343-.053,1.549,1.549,0,0,1-.239-.086l-.233-23.573a1.55,1.55,0,0,0,.239.085A1.931,1.931,0,0,0,289.045,79.288Z"/><path class="bc7ebba2-1229-42d9-a49e-c78ec45c9586" d="M291.959,103.506a15.681,15.681,0,0,0-1.369-1l-.233-23.574a15.728,15.728,0,0,1,1.369,1Q291.843,91.72,291.959,103.506Z"/><path class="bc7ebba2-1229-42d9-a49e-c78ec45c9586" d="M293.6,105.142a17.946,17.946,0,0,0-1.637-1.636q-.117-11.787-.233-23.573a17.822,17.822,0,0,1,1.637,1.635Q293.479,93.355,293.6,105.142Z"/><path class="bc7ebba2-1229-42d9-a49e-c78ec45c9586" d="M293.66,105.294a.3.3,0,0,0-.064-.152q-.117-11.788-.233-23.574a.3.3,0,0,1,.064.152C293.5,88.792,293.59,98.222,293.66,105.294Z"/><path class="f84cf778-8f8b-4c0b-8167-58b4433e7375" d="M292.715,82.1l.233,23.573a.3.3,0,0,1-.166,0,1.73,1.73,0,0,1-.264-.111c-.241-.113-.854-.446-1.2-.664a6.5,6.5,0,0,1-1.254-1.043,9.066,9.066,0,0,0-.784-.994l-.233-23.574a9.082,9.082,0,0,1,.784,1,6.5,6.5,0,0,0,1.254,1.043c.348.217.961.551,1.2.663a1.879,1.879,0,0,0,.264.112A.322.322,0,0,0,292.715,82.1Z"/><polygon class="bc7ebba2-1229-42d9-a49e-c78ec45c9586" points="293.476 82.976 293.709 106.549 279.757 102.843 279.524 79.27 293.476 82.976"/><path class="f84cf778-8f8b-4c0b-8167-58b4433e7375" d="M293.427,81.72l.233,23.574c0,.091-.117.1-.213.147a3.092,3.092,0,0,1-.5.233L292.715,82.1a3.188,3.188,0,0,0,.5-.234C293.31,81.821,293.428,81.811,293.427,81.72Z"/><polygon class="f84cf778-8f8b-4c0b-8167-58b4433e7375" points="293.039 83.358 293.272 106.932 279.319 103.226 279.086 79.652 293.039 83.358"/><path class="f84cf778-8f8b-4c0b-8167-58b4433e7375" d="M281.722,102.2l-.233-23.574a1.153,1.153,0,0,0,.161.31l.233,23.573C281.838,102.422,281.723,102.271,281.722,102.2Z"/><polygon class="bc7ebba2-1229-42d9-a49e-c78ec45c9586" points="292.383 83.932 292.616 107.506 278.663 103.8 278.43 80.226 292.383 83.932"/><path class="f84cf778-8f8b-4c0b-8167-58b4433e7375" d="M279.086,79.652l.43.114L279.5,78.5c-.419.124-.663.271-.66.394l.233,23.573c0-.071.081-.151.233-.23Z"/><path class="bc7ebba2-1229-42d9-a49e-c78ec45c9586" d="M289.449,78.566c.217.058.3.191.174.3a.743.743,0,0,1-.615.094l-.008,0c-.217-.057-.3-.191-.174-.3a.759.759,0,0,1,.616-.094Z"/><path class="bc7ebba2-1229-42d9-a49e-c78ec45c9586" d="M279.524,79.27l.233,23.573c-.424-.112-.677-.253-.68-.376l-.233-23.573C278.847,79.017,279.1,79.157,279.524,79.27Z"/><polygon class="f84cf778-8f8b-4c0b-8167-58b4433e7375" points="310.779 78.037 311.012 101.611 309.664 102.79 309.431 79.216 310.779 78.037"/><path class="f84cf778-8f8b-4c0b-8167-58b4433e7375" d="M278.182,102.474,277.949,78.9c0,.277.382.55,1.137.751l.233,23.574C278.564,103.025,278.184,102.752,278.182,102.474Z"/><path class="bc7ebba2-1229-42d9-a49e-c78ec45c9586" d="M278.43,80.226l.233,23.574c-1.143-.3-1.809-.779-1.819-1.3l-.233-23.574C276.621,79.447,277.287,79.922,278.43,80.226Z"/><polygon class="f84cf778-8f8b-4c0b-8167-58b4433e7375" points="321.402 80.859 321.635 104.432 311.012 101.611 310.779 78.037 321.402 80.859"/><polygon class="f84cf778-8f8b-4c0b-8167-58b4433e7375" points="324.032 78.559 324.265 102.133 321.635 104.432 321.402 80.859 324.032 78.559"/><polygon class="f84cf778-8f8b-4c0b-8167-58b4433e7375" points="308.076 80.401 308.309 103.975 306.961 105.154 306.728 81.581 308.076 80.401"/><polygon class="f84cf778-8f8b-4c0b-8167-58b4433e7375" points="294.837 82.573 295.07 106.146 294.874 98.363 294.641 74.789 294.837 82.573"/><path class="bc7ebba2-1229-42d9-a49e-c78ec45c9586" d="M295.07,106.153a.458.458,0,0,1-.338.472q-.117-11.787-.233-23.573a.459.459,0,0,0,.338-.472C294.907,89.652,295,99.081,295.07,106.153Z"/><polygon class="bc7ebba2-1229-42d9-a49e-c78ec45c9586" points="320.054 82.038 320.287 105.611 309.664 102.79 309.431 79.216 320.054 82.038"/><polygon class="f84cf778-8f8b-4c0b-8167-58b4433e7375" points="297.07 82.542 297.303 106.116 297.107 98.332 296.874 74.758 297.07 82.542"/><polygon class="bc7ebba2-1229-42d9-a49e-c78ec45c9586" points="295.729 82.56 295.962 106.134 295.766 98.35 295.533 74.777 295.729 82.56"/><polygon class="f84cf778-8f8b-4c0b-8167-58b4433e7375" points="294.837 82.58 295.07 106.153 295.07 106.146 294.837 82.573 294.837 82.58"/><path class="bc7ebba2-1229-42d9-a49e-c78ec45c9586" d="M294.732,106.625a2.139,2.139,0,0,1-1.023-.076l-.233-23.573a2.165,2.165,0,0,0,1.023.076Q294.616,94.839,294.732,106.625Z"/><path class="f84cf778-8f8b-4c0b-8167-58b4433e7375" d="M295.73,82.568l.233,23.573a.755.755,0,0,1-.268.594,2.821,2.821,0,0,1-2.423.2l-.233-23.574a2.814,2.814,0,0,0,2.423-.2A.753.753,0,0,0,295.73,82.568Z"/><polygon class="bc7ebba2-1229-42d9-a49e-c78ec45c9586" points="295.73 82.568 295.963 106.141 295.962 106.134 295.729 82.56 295.73 82.568"/><polygon class="f84cf778-8f8b-4c0b-8167-58b4433e7375" points="318.699 83.223 318.932 106.797 308.309 103.975 308.076 80.401 318.699 83.223"/><polygon class="f84cf778-8f8b-4c0b-8167-58b4433e7375" points="305.375 82.764 305.608 106.337 304.261 107.516 304.028 83.943 305.375 82.764"/><path class="bc7ebba2-1229-42d9-a49e-c78ec45c9586" d="M297.07,82.542l.233,23.574c.015.638-.508,1.163-1.432,1.436a6.236,6.236,0,0,1-3.255-.046l-.233-23.574a6.226,6.226,0,0,0,3.255.046C296.562,83.706,297.085,83.18,297.07,82.542Z"/><polygon class="bc7ebba2-1229-42d9-a49e-c78ec45c9586" points="317.351 84.402 317.584 107.976 306.961 105.154 306.728 81.581 317.351 84.402"/><polygon class="f84cf778-8f8b-4c0b-8167-58b4433e7375" points="315.999 85.585 316.232 109.159 305.608 106.337 305.375 82.764 315.999 85.585"/><polygon class="f84cf778-8f8b-4c0b-8167-58b4433e7375" points="302.673 85.128 302.906 108.702 301.558 109.881 301.325 86.307 302.673 85.128"/><polygon class="bc7ebba2-1229-42d9-a49e-c78ec45c9586" points="314.651 86.764 314.884 110.338 304.261 107.516 304.028 83.943 314.651 86.764"/><polygon class="f84cf778-8f8b-4c0b-8167-58b4433e7375" points="313.296 87.95 313.529 111.523 302.906 108.702 302.673 85.128 313.296 87.95"/><polygon class="f84cf778-8f8b-4c0b-8167-58b4433e7375" points="299.97 87.492 300.203 111.066 298.855 112.245 298.622 88.671 299.97 87.492"/><polygon class="bc7ebba2-1229-42d9-a49e-c78ec45c9586" points="311.948 89.129 312.181 112.702 301.558 109.881 301.325 86.307 311.948 89.129"/><polygon class="f84cf778-8f8b-4c0b-8167-58b4433e7375" points="310.593 90.314 310.826 113.888 300.203 111.066 299.97 87.492 310.593 90.314"/><polygon class="f84cf778-8f8b-4c0b-8167-58b4433e7375" points="297.267 89.857 297.5 113.43 296.152 114.609 295.919 91.036 297.267 89.857"/><polygon class="bc7ebba2-1229-42d9-a49e-c78ec45c9586" points="309.245 91.493 309.478 115.067 298.855 112.245 298.622 88.671 309.245 91.493"/><polygon class="f84cf778-8f8b-4c0b-8167-58b4433e7375" points="307.89 92.678 308.123 116.252 297.5 113.43 297.267 89.857 307.89 92.678"/><polygon class="bc7ebba2-1229-42d9-a49e-c78ec45c9586" points="306.542 93.857 306.775 117.431 296.152 114.609 295.919 91.036 306.542 93.857"/><path class="f84cf778-8f8b-4c0b-8167-58b4433e7375" d="M321.4,80.859l-10.623-2.822-1.348,1.179,10.623,2.822L318.7,83.223,308.076,80.4l-1.348,1.18L317.351,84.4,316,85.585l-10.624-2.821-1.347,1.179,10.623,2.821L313.3,87.95l-10.623-2.822-1.348,1.179,10.623,2.822-1.355,1.185L299.97,87.492l-1.348,1.179,10.623,2.822-1.355,1.185-10.623-2.821-1.348,1.179,10.623,2.821-5.13,4.488-40.3-10.7,22.621-19.786,40.3,10.7Zm-25.764,3.119c.924-.272,1.447-.8,1.432-1.436l-.2-7.784c-.016-.638-.563-1.149-1.5-1.4a6.225,6.225,0,0,0-3.254.136l-13.756,4.078c-1.128.334-1.77.828-1.754,1.35s.676,1,1.819,1.3l13.953,3.706a6.226,6.226,0,0,0,3.255.046"/><path class="bc7ebba2-1229-42d9-a49e-c78ec45c9586" d="M294.641,74.789l.2,7.784a.46.46,0,0,1-.338.479,2.165,2.165,0,0,1-1.023-.076L279.524,79.27c-.424-.113-.677-.253-.68-.376s.241-.27.66-.394l13.756-4.078a2.135,2.135,0,0,1,1.019-.1A.472.472,0,0,1,294.641,74.789Zm-1.427,7.078c.134-.064.31-.058.149-.3a17.822,17.822,0,0,0-1.637-1.635,15.728,15.728,0,0,0-1.369-1l-.073-.052a.282.282,0,0,0-.034-.318c.236-.2.994-.6,1.386-.841a6.748,6.748,0,0,0,1.25-1.064,6.469,6.469,0,0,0,.594-.848c.087-.158.106-.2-.009-.238a6.421,6.421,0,0,0-.658-.091.673.673,0,0,0-.607.091c-.347.193-1.691,1.175-2.113,1.529a11.488,11.488,0,0,0-1.106,1.089.582.582,0,0,1-.053.056,1.482,1.482,0,0,0-.553.179c-.476,0-1.558-.11-2.171-.154a23.458,23.458,0,0,0-2.5.022c-.568.039-1.478.139-1.8.184s-.4.058-.421.126.112.236.16.325c.031.063-.011.117.155.162a2.043,2.043,0,0,0,.3.046c.513.049,2.913.109,3.745.105s2.134-.065,2.48-.092l.131,0a1.55,1.55,0,0,0,.239.085,1.931,1.931,0,0,0,.343.053,9.082,9.082,0,0,1,.784,1,6.5,6.5,0,0,0,1.254,1.043c.348.217.961.551,1.2.663a1.879,1.879,0,0,0,.264.112.322.322,0,0,0,.166,0,3.188,3.188,0,0,0,.5-.234"/><path class="f84cf778-8f8b-4c0b-8167-58b4433e7375" d="M293.363,81.568c.161.241-.015.235-.149.3a3.188,3.188,0,0,1-.5.234.322.322,0,0,1-.166,0,1.879,1.879,0,0,1-.264-.112c-.241-.112-.854-.446-1.2-.663a6.5,6.5,0,0,1-1.254-1.043,9.082,9.082,0,0,0-.784-1,1.931,1.931,0,0,1-.343-.053,1.55,1.55,0,0,1-.239-.085l-.131,0c-.346.027-1.643.09-2.48.092s-3.232-.056-3.745-.105a2.043,2.043,0,0,1-.3-.046c-.166-.045-.124-.1-.155-.162-.048-.089-.177-.256-.16-.325s.1-.08.421-.126,1.232-.145,1.8-.184a23.458,23.458,0,0,1,2.5-.022c.613.044,1.695.155,2.171.154a1.482,1.482,0,0,1,.553-.179.582.582,0,0,0,.053-.056,11.488,11.488,0,0,1,1.106-1.089c.422-.354,1.766-1.336,2.113-1.529a.673.673,0,0,1,.607-.091c.169.023.49.045.629.082s.125.089.038.247a6.469,6.469,0,0,1-.594.848,6.748,6.748,0,0,1-1.25,1.064c-.392.238-1.15.644-1.386.841a.282.282,0,0,1,.034.318l.073.052a15.728,15.728,0,0,1,1.369,1A17.822,17.822,0,0,1,293.363,81.568Zm-4.355-2.61a.743.743,0,0,0,.615-.094c.122-.107.043-.24-.174-.3l-.007,0a.759.759,0,0,0-.616.094c-.122.107-.043.241.174.3l.008,0"/><polygon class="bc7ebba2-1229-42d9-a49e-c78ec45c9586" points="321.402 80.859 320.054 82.038 309.431 79.216 310.779 78.037 321.402 80.859"/><polygon class="bc7ebba2-1229-42d9-a49e-c78ec45c9586" points="321.402 80.859 321.635 104.432 320.287 105.611 320.054 82.038 321.402 80.859"/><polygon class="f84cf778-8f8b-4c0b-8167-58b4433e7375" points="320.054 82.038 320.287 105.611 318.932 106.797 318.699 83.223 320.054 82.038"/><path class="bc7ebba2-1229-42d9-a49e-c78ec45c9586" d="M297.07,82.542c.015.638-.508,1.164-1.432,1.436a6.226,6.226,0,0,1-3.255-.046L278.43,80.226c-1.143-.3-1.809-.779-1.819-1.3s.626-1.016,1.754-1.35L292.121,73.5a6.225,6.225,0,0,1,3.254-.136c.936.249,1.483.76,1.5,1.4Zm-4.031.816a2.814,2.814,0,0,0,2.423-.2.75.75,0,0,0,.267-.6l-.2-7.783c-.011-.421-.319-.711-.815-.843a3.656,3.656,0,0,0-1.913.118L279.049,78.13a2.515,2.515,0,0,0-.911.43c-.435.38-.119.809.948,1.092l13.953,3.706"/><path class="f84cf778-8f8b-4c0b-8167-58b4433e7375" d="M295.729,82.56a.75.75,0,0,1-.267.6,2.814,2.814,0,0,1-2.423.2l-13.953-3.706c-1.067-.283-1.383-.712-.948-1.092a2.515,2.515,0,0,1,.911-.43l13.756-4.078a3.656,3.656,0,0,1,1.913-.118c.5.132.8.422.815.843Zm-1.23.492a.46.46,0,0,0,.338-.479l-.2-7.784a.472.472,0,0,0-.362-.47,2.135,2.135,0,0,0-1.019.1L279.5,78.5c-.419.124-.663.271-.66.394s.256.263.68.376l13.952,3.706a2.165,2.165,0,0,0,1.023.076"/><polygon class="bc7ebba2-1229-42d9-a49e-c78ec45c9586" points="318.699 83.223 318.932 106.797 317.584 107.976 317.351 84.402 318.699 83.223"/><polygon class="bc7ebba2-1229-42d9-a49e-c78ec45c9586" points="318.699 83.223 317.351 84.402 306.728 81.581 308.076 80.401 318.699 83.223"/><polygon class="f84cf778-8f8b-4c0b-8167-58b4433e7375" points="317.351 84.402 317.584 107.976 316.232 109.159 315.999 85.585 317.351 84.402"/><polygon class="bc7ebba2-1229-42d9-a49e-c78ec45c9586" points="315.999 85.585 316.232 109.159 314.884 110.338 314.651 86.764 315.999 85.585"/><polygon class="bc7ebba2-1229-42d9-a49e-c78ec45c9586" points="315.999 85.585 314.651 86.764 304.028 83.943 305.375 82.764 315.999 85.585"/><polygon class="f84cf778-8f8b-4c0b-8167-58b4433e7375" points="314.651 86.764 314.884 110.338 313.529 111.523 313.296 87.95 314.651 86.764"/><polygon class="bc7ebba2-1229-42d9-a49e-c78ec45c9586" points="313.296 87.95 313.529 111.523 312.181 112.702 311.948 89.129 313.296 87.95"/><polygon class="bc7ebba2-1229-42d9-a49e-c78ec45c9586" points="313.296 87.95 311.948 89.129 301.325 86.307 302.673 85.128 313.296 87.95"/><polygon class="f84cf778-8f8b-4c0b-8167-58b4433e7375" points="311.948 89.129 312.181 112.702 310.826 113.888 310.593 90.314 311.948 89.129"/><polygon class="bc7ebba2-1229-42d9-a49e-c78ec45c9586" points="310.593 90.314 309.245 91.493 298.622 88.671 299.97 87.492 310.593 90.314"/><polygon class="bc7ebba2-1229-42d9-a49e-c78ec45c9586" points="310.593 90.314 310.826 113.888 309.478 115.067 309.245 91.493 310.593 90.314"/><polygon class="f84cf778-8f8b-4c0b-8167-58b4433e7375" points="309.245 91.493 309.478 115.067 308.123 116.252 307.89 92.678 309.245 91.493"/><polygon class="bc7ebba2-1229-42d9-a49e-c78ec45c9586" points="307.89 92.678 306.542 93.857 295.919 91.036 297.267 89.857 307.89 92.678"/><polygon class="bc7ebba2-1229-42d9-a49e-c78ec45c9586" points="307.89 92.678 308.123 116.252 306.775 117.431 306.542 93.857 307.89 92.678"/><polygon class="f84cf778-8f8b-4c0b-8167-58b4433e7375" points="306.542 93.857 306.775 117.431 301.645 121.918 301.412 98.345 306.542 93.857"/><polygon class="e74d3b73-3d07-498a-a184-dccf64424983" points="301.412 98.345 301.645 121.918 261.341 111.213 261.108 87.64 301.412 98.345"/></g><use width="27.681" height="24.624" transform="translate(557.18 9.638) rotate(89.056) scale(2.163)" xlink:href="#a686cd9b-8fda-457f-aaa5-cab125160bcc"/><use width="27.681" height="24.624" transform="translate(31.229 182.901) rotate(-90.944) scale(2.163)" xlink:href="#a686cd9b-8fda-457f-aaa5-cab125160bcc"/><line class="f8144ca8-8ae6-4f13-8311-ba125f6694f1" x1="361.617" y1="105.599" x2="653.625" y2="105.599"/><line class="f8144ca8-8ae6-4f13-8311-ba125f6694f1" x1="381.617" y1="85.599" x2="673.625" y2="85.599"/><line class="b4517e16-792b-46d5-8e9c-ac68bedb4b85" x1="216.277" y1="102.096" x2="236.574" y2="122.394"/><line class="b4517e16-792b-46d5-8e9c-ac68bedb4b85" x1="236.574" y1="102.096" x2="216.277" y2="122.394"/><path class="abc9f38a-58ed-46ce-b3de-a7b46ef9c75c" d="M488.011,29.235q-.243,1.124-.426,2.274a41.047,41.047,0,0,0,7.305,30.672"/><path class="abc9f38a-58ed-46ce-b3de-a7b46ef9c75c" d="M465.865,34.867q-.243,1.125-.426,2.275a41.05,41.05,0,0,0,7.305,30.672"/><path class="abc9f38a-58ed-46ce-b3de-a7b46ef9c75c" d="M443.719,40.5q-.243,1.124-.426,2.274A41.047,41.047,0,0,0,450.6,73.447"/><path class="abc9f38a-58ed-46ce-b3de-a7b46ef9c75c" d="M421.573,46.133q-.243,1.123-.426,2.274a41.047,41.047,0,0,0,7.3,30.672"/><path class="abc9f38a-58ed-46ce-b3de-a7b46ef9c75c" d="M399.426,51.765q-.242,1.125-.425,2.275a41.049,41.049,0,0,0,7.3,30.672"/><path class="abc9f38a-58ed-46ce-b3de-a7b46ef9c75c" d="M377.28,57.4q-.243,1.123-.426,2.274a41.055,41.055,0,0,0,7.305,30.673"/><path class="abc9f38a-58ed-46ce-b3de-a7b46ef9c75c" d="M355.134,63.03q-.243,1.125-.426,2.275a41.05,41.05,0,0,0,7.3,30.672"/><path class="abc9f38a-58ed-46ce-b3de-a7b46ef9c75c" d="M332.988,68.663q-.243,1.125-.426,2.275a41.05,41.05,0,0,0,7.305,30.672"/><path class="a0004054-5ef9-4dce-b44b-478bc0bb0734" d="M28.341,8.847a5.808,5.808,0,0,0-4.932,3.237L8.928,37.164a5.813,5.813,0,0,0-.336,5.89,5.811,5.811,0,0,0,5.268,2.654H42.822a5.812,5.812,0,0,0,5.268-2.654,5.815,5.815,0,0,0-.336-5.89L33.273,12.083h0a5.813,5.813,0,0,0-4.932-3.235Z"/><path class="bc7ebba2-1229-42d9-a49e-c78ec45c9586" d="M28.341,11.273A3.437,3.437,0,0,0,25.51,13.3L11.03,38.377a4.431,4.431,0,0,0-.665,2.175c0,1.614,1.282,2.729,3.495,2.729H42.822c2.213,0,3.5-1.115,3.495-2.729a4.429,4.429,0,0,0-.664-2.175L31.172,13.3a3.442,3.442,0,0,0-2.831-2.023ZM13.86,41.663a2.027,2.027,0,0,1-1.765-.632,2.029,2.029,0,0,1,.336-1.846l14.481-25.08c.439-.76.973-1.214,1.43-1.214s.99.454,1.43,1.214L44.253,39.186a2.029,2.029,0,0,1,.336,1.846,2.027,2.027,0,0,1-1.765.632H13.86Z"/><path class="f385154c-4e4a-4860-a6f3-650740b4e629" d="M40.076,37.2A66.8,66.8,0,0,0,34.5,33.3a42.835,42.835,0,0,0-3.993-2.054c-.083-.035-.151-.068-.211-.1a1.973,1.973,0,0,0-.636-1c.02-.849.486-2.817.678-3.924a20.905,20.905,0,0,0,.051-4.525c-.124-1.028-.44-2.679-.595-3.266s-.194-.733-.452-.767a5.548,5.548,0,0,0-1.21.273c-.33.078-.59-.1-.8.82a66.943,66.943,0,0,0-.584,6.776,43.4,43.4,0,0,0,.217,4.485c.011.088.017.161.019.228a1.98,1.98,0,0,0-.557,1.06c-.75.407-2.679.985-3.73,1.371A20.85,20.85,0,0,0,18.755,34.9c-.829.621-2.1,1.721-2.531,2.148s-.538.534-.438.774a5.48,5.48,0,0,0,.842.911c.233.247.206.562,1.109.282a66.556,66.556,0,0,0,6.16-2.882A43.073,43.073,0,0,0,27.672,33.7a1.694,1.694,0,0,1,.206-.131,1.94,1.94,0,0,0,.531.073,1.979,1.979,0,0,0,.642-.124c.725.441,2.2,1.829,3.059,2.549A20.836,20.836,0,0,0,36,38.373a33.129,33.129,0,0,0,3.126,1.118c.585.159.732.2.89-.008a5.5,5.5,0,0,0,.368-1.185C40.484,37.973,40.771,37.84,40.076,37.2Zm-12.519-5.53a.825.825,0,1,1,.836.814A.825.825,0,0,1,27.557,31.668Z"/><path d="M60.55,32.995l-1.919-5.813a.247.247,0,0,0,.029-.01,2.532,2.532,0,0,0,1.134-1.036,3.215,3.215,0,0,0,.391-1.631V22.994a3.06,3.06,0,0,0-.391-1.586A2.5,2.5,0,0,0,58.665,20.4a4.205,4.205,0,0,0-1.778-.342H53.776V32.995h1.929V27.528h1.089l1.64,5.467ZM55.706,21.92h1.325a1.32,1.32,0,0,1,.635.146.959.959,0,0,1,.409.422,1.452,1.452,0,0,1,.138.658v1.378a1.374,1.374,0,0,1-.146.626.914.914,0,0,1-.405.387,1.394,1.394,0,0,1-.631.133H55.706Z"/><path d="M65.729,32.828a2.069,2.069,0,0,0,.924-.881,2.859,2.859,0,0,0,.316-1.387v-4.4a2.817,2.817,0,0,0-.316-1.382,2.063,2.063,0,0,0-.924-.871,3.735,3.735,0,0,0-2.924,0,2.105,2.105,0,0,0-.933.871,2.757,2.757,0,0,0-.325,1.382v4.374a2.815,2.815,0,0,0,.325,1.4,2.141,2.141,0,0,0,.933.89,3.227,3.227,0,0,0,1.462.307A3.27,3.27,0,0,0,65.729,32.828Zm-2.04-1.743a.959.959,0,0,1-.2-.658V26.284a.9.9,0,0,1,.209-.636.729.729,0,0,1,.564-.227.72.72,0,0,1,.573.227.931.931,0,0,1,.2.636v4.143a.974.974,0,0,1-.2.662.727.727,0,0,1-.573.227A.714.714,0,0,1,63.689,31.085Z"/><path d="M70.737,21.084H68.8v2.685h-.88v1.813h.88V30.6a2.666,2.666,0,0,0,.551,1.832,2.222,2.222,0,0,0,1.733.613h.925V31.155H71.35a.55.55,0,0,1-.453-.2.839.839,0,0,1-.16-.543V25.582h1.271V23.769H70.737Z"/><path d="M78.649,26.16a2.817,2.817,0,0,0-.315-1.382,2.055,2.055,0,0,0-.925-.871,3.738,3.738,0,0,0-2.925,0,2.11,2.11,0,0,0-.933.871,2.757,2.757,0,0,0-.325,1.382v4.374a2.815,2.815,0,0,0,.325,1.4,2.141,2.141,0,0,0,.933.89,3.228,3.228,0,0,0,1.463.307,3.261,3.261,0,0,0,1.462-.3,2.071,2.071,0,0,0,.925-.881,2.848,2.848,0,0,0,.315-1.387Zm-1.937,4.267a.969.969,0,0,1-.2.662.727.727,0,0,1-.573.227.719.719,0,0,1-.569-.23.964.964,0,0,1-.2-.658V26.285a.9.9,0,0,1,.209-.636.729.729,0,0,1,.564-.227.72.72,0,0,1,.573.227.926.926,0,0,1,.2.636Z"/><path d="M84.553,25.618l.089-.009v-2a2.527,2.527,0,0,0-1.472.466,3.3,3.3,0,0,0-.9,1.014V23.768H80.313v9.227h1.955V27.439a1.793,1.793,0,0,1,.516-1.333,1.954,1.954,0,0,1,1.414-.489h.355Z"/><polygon points="91.976 32.995 91.976 20.071 90.02 20.071 90.02 25.706 87.868 25.706 87.868 20.071 85.913 20.071 85.913 32.995 87.868 32.995 87.868 27.547 90.02 27.547 90.02 32.995 91.976 32.995"/><path d="M99.309,32.995V26.31a3.027,3.027,0,0,0-.329-1.462,2.166,2.166,0,0,0-.951-.924,3.29,3.29,0,0,0-1.5-.315,2.742,2.742,0,0,0-2.014.707,2.709,2.709,0,0,0-.725,2h1.876a1.11,1.11,0,0,1,.223-.715.744.744,0,0,1,.6-.253.939.939,0,0,1,.7.253.977.977,0,0,1,.249.715V27.45h-.89a2.933,2.933,0,0,0-2.2.773,3.168,3.168,0,0,0-.751,2.294,2.949,2.949,0,0,0,.561,1.956,2.029,2.029,0,0,0,1.636.657,1.941,1.941,0,0,0,.986-.231,1.476,1.476,0,0,0,.609-.693c.021-.047.031-.107.049-.158V33h1.867Zm-2.152-1.839a1.081,1.081,0,0,1-.826.3.858.858,0,0,1-.658-.236,1,1,0,0,1-.222-.706,1.692,1.692,0,0,1,.293-1.076,1.05,1.05,0,0,1,.871-.365h.827v1.191A1.251,1.251,0,0,1,97.157,31.156Z"/><polygon points="105.914 25.449 105.914 23.768 100.998 23.768 100.998 25.6 103.949 25.6 100.873 31.281 100.873 32.995 106.154 32.995 106.154 31.165 102.963 31.165 105.914 25.449"/><path d="M111.878,23.924a3.29,3.29,0,0,0-1.5-.315,2.742,2.742,0,0,0-2.014.707,2.709,2.709,0,0,0-.725,2h1.876a1.11,1.11,0,0,1,.223-.715.744.744,0,0,1,.6-.253.939.939,0,0,1,.7.253.977.977,0,0,1,.249.715V27.45h-.89a2.933,2.933,0,0,0-2.2.773,3.168,3.168,0,0,0-.751,2.294,2.949,2.949,0,0,0,.561,1.956,2.029,2.029,0,0,0,1.636.657,1.941,1.941,0,0,0,.986-.231,1.476,1.476,0,0,0,.609-.693c.021-.047.031-.107.049-.158V33h1.866V26.312a3.027,3.027,0,0,0-.329-1.462A2.163,2.163,0,0,0,111.878,23.924Zm-.871,7.232a1.081,1.081,0,0,1-.826.3.858.858,0,0,1-.658-.236,1,1,0,0,1-.222-.706,1.692,1.692,0,0,1,.293-1.076,1.05,1.05,0,0,1,.871-.365h.827v1.191A1.256,1.256,0,0,1,111.007,31.156Z"/><path d="M118.893,25.618h.355l.089-.009v-2a2.527,2.527,0,0,0-1.472.466,3.3,3.3,0,0,0-.9,1.014V23.768h-1.955v9.227h1.955V27.439a1.793,1.793,0,0,1,.516-1.333A1.954,1.954,0,0,1,118.893,25.618Z"/><path d="M124.039,20.071V24.9a2.828,2.828,0,0,0-.64-.858,1.773,1.773,0,0,0-2.174-.121,1.977,1.977,0,0,0-.662.92,4.035,4.035,0,0,0-.23,1.44v4.231a3.974,3.974,0,0,0,.227,1.427,1.894,1.894,0,0,0,.662.9,1.744,1.744,0,0,0,1.04.311,1.765,1.765,0,0,0,1.169-.422,2.294,2.294,0,0,0,.608-.9v1.165H126V20.071Zm-.1,10.8a.774.774,0,0,1-.3.369.879.879,0,0,1-.48.125.833.833,0,0,1-.662-.271,1.138,1.138,0,0,1-.235-.77V26.507a1.273,1.273,0,0,1,.235-.818.8.8,0,0,1,.662-.293.853.853,0,0,1,.48.129.81.81,0,0,1,.3.378,1.587,1.587,0,0,1,.1.6v3.787A1.544,1.544,0,0,1,123.938,30.867Z"/><polygon points="54.074 35.241 53.789 35.241 53.789 39.392 54.371 39.392 54.371 37.645 56.087 37.645 56.087 37.091 54.371 37.091 54.371 35.795 56.401 35.795 56.401 35.241 54.371 35.241 54.074 35.241"/><path d="M61.307,35.4a1.319,1.319,0,0,0-.654-.159H59.045v4.151h.583v-1.61h1.025a1.321,1.321,0,0,0,.654-.157,1.093,1.093,0,0,0,.438-.443,1.506,1.506,0,0,0,0-1.335A1.1,1.1,0,0,0,61.307,35.4Zm-.082,1.488a.589.589,0,0,1-.221.251.608.608,0,0,1-.331.089H59.628V35.8h1.045a.588.588,0,0,1,.552.342.847.847,0,0,1,.079.377A.837.837,0,0,1,61.225,36.888Z"/><polygon points="65.875 38.495 64.879 35.241 64.245 35.241 65.598 39.392 66.152 39.392 67.505 35.241 66.871 35.241 65.875 38.495"/><path d="M75.356,37.488a1.054,1.054,0,0,0,.424-.421,1.277,1.277,0,0,0,.151-.63,1.3,1.3,0,0,0-.15-.629,1.031,1.031,0,0,0-.422-.421,1.3,1.3,0,0,0-.633-.148H73.079v4.153h.583V37.636h.866l.887,1.756h.69l-.961-1.824A1.22,1.22,0,0,0,75.356,37.488Zm-1.694-1.7h1.087a.54.54,0,0,1,.3.08.528.528,0,0,1,.2.227.865.865,0,0,1,0,.677.526.526,0,0,1-.2.227.538.538,0,0,1-.294.08H73.662Z"/><path d="M79.9,35.241l-1.53,4.151h.628l.313-.911h1.675l.313.911h.628l-1.529-4.151Zm-.4,2.686.647-1.884.647,1.884Z"/><path d="M85.069,36.233a.813.813,0,0,1,.3-.344.8.8,0,0,1,.445-.123.813.813,0,0,1,.354.083.914.914,0,0,1,.3.235.946.946,0,0,1,.181.347h.6a1.612,1.612,0,0,0-.272-.647,1.38,1.38,0,0,0-.5-.433,1.423,1.423,0,0,0-.656-.152,1.458,1.458,0,0,0-.758.192,1.3,1.3,0,0,0-.507.544,1.758,1.758,0,0,0-.18.813v1.139a1.759,1.759,0,0,0,.18.814,1.3,1.3,0,0,0,.507.542l.326.191h.432a1.414,1.414,0,0,0,.653-.153,1.4,1.4,0,0,0,.5-.432,1.6,1.6,0,0,0,.273-.648h-.6a.9.9,0,0,1-.181.359.826.826,0,0,1-.3.229.841.841,0,0,1-.355.077.808.808,0,0,1-.445-.121.8.8,0,0,1-.3-.344,1.2,1.2,0,0,1-.106-.515V36.747A1.171,1.171,0,0,1,85.069,36.233Z"/><polygon points="90.34 35.241 90.057 35.241 90.057 39.392 90.34 39.392 90.64 39.392 92.724 39.392 92.724 38.838 90.64 38.838 90.64 37.608 92.409 37.608 92.409 37.054 90.64 37.054 90.64 35.795 92.724 35.795 92.724 35.241 90.64 35.241 90.34 35.241"/><polygon points="97.956 35.795 99.129 35.795 99.129 39.392 99.711 39.392 99.711 35.795 100.885 35.795 100.885 35.241 97.956 35.241 97.956 35.795"/><rect x="103.329" y="35.241" width="0.583" height="4.151"/><polygon points="108.691 37.982 107.473 35.241 106.927 35.241 106.927 39.392 107.495 39.392 107.495 36.586 108.488 38.815 108.894 38.815 109.888 36.531 109.888 39.392 110.455 39.392 110.455 35.241 109.91 35.241 108.691 37.982"/><rect x="113.472" y="35.241" width="0.583" height="4.151"/><polygon points="119.559 38.34 117.598 35.241 117.069 35.241 117.069 39.389 117.647 39.389 117.647 36.336 119.602 39.389 120.136 39.389 120.136 35.241 119.559 35.241 119.559 38.34"/><path d="M124.551,37.713h.842v.18a1.2,1.2,0,0,1-.105.522.768.768,0,0,1-.3.336.867.867,0,0,1-.451.115.922.922,0,0,1-.458-.111.771.771,0,0,1-.307-.313.968.968,0,0,1-.109-.47V36.747a1.2,1.2,0,0,1,.106-.516.8.8,0,0,1,.3-.344.821.821,0,0,1,.45-.123.786.786,0,0,1,.343.079.823.823,0,0,1,.289.229.9.9,0,0,1,.174.357h.631a1.614,1.614,0,0,0-.274-.647,1.389,1.389,0,0,0-.5-.433,1.428,1.428,0,0,0-.658-.152,1.485,1.485,0,0,0-.764.192,1.293,1.293,0,0,0-.509.544,1.758,1.758,0,0,0-.18.813v1.225a1.563,1.563,0,0,0,.183.768,1.26,1.26,0,0,0,.515.513,1.587,1.587,0,0,0,.772.182,1.492,1.492,0,0,0,.764-.192,1.307,1.307,0,0,0,.51-.546,1.768,1.768,0,0,0,.18-.814v-.726h-1.438v.557Z"/></svg>