<svg id="Layer_1" data-name="Layer 1" xmlns="http://www.w3.org/2000/svg" width="216" height="216" viewBox="0 0 216 216">
  <defs>
    <style>
      .cls-1, .cls-2, .cls-4, .cls-6, .cls-8, .cls-9 {
        fill: none;
        stroke-miterlimit: 10;
      }

      .cls-1 {
        stroke: #ee7c2b;
      }

      .cls-1, .cls-2, .cls-9 {
        stroke-width: 1.054px;
      }

      .cls-2 {
        stroke: #ef3f23;
      }

      .cls-3 {
        fill: #365073;
        opacity: 0.83;
        isolation: isolate;
      }

      .cls-4 {
        stroke: #5a85bd;
        stroke-width: 1.832px;
      }

      .cls-5 {
        fill: #3fd969;
        opacity: 0.3;
      }

      .cls-6, .cls-9 {
        stroke: #fff;
      }

      .cls-7 {
        fill: #fff;
      }

      .cls-8 {
        stroke: #f0ff9c;
      }
    </style>
  </defs>
  <title>Tuning Graph</title>
  <rect width="216" height="216"/>
  <line class="cls-1" x1="0.139" y1="45.745" x2="216" y2="45.745"/>
  <line class="cls-2" y1="28.745" x2="215.861" y2="28.745"/>
  <path class="cls-3" d="M0,105.6c3.32.383,20.99-90.426,22.917-90.426s1.928,38.724,3.855,38.724S32.234,25.83,34.8,26.213,38.017,38.4,39.623,38.021s.643-17.978,2.57-17.6,3.856,53.17,5.783,52.787,1.285-10.341,2.892-9.958S58.9,139.6,62.112,138.83s3.213-9.787,5.783-10.17S73.035,159,74.963,159,80.746,124.532,83,124.532s2.891,12.638,4.819,13.021,1.606,12.256,4.5,11.49,1.607-10.341,3.213-9.958,1.928,19.532,3.855,19.532,5.141-65.872,6.747-65.872.964,20.681,2.57,20.681,1.606-31.4,3.534-31.4,2.57,54.766,3.534,54.766,3.088-15.7,5.239-15.7,4.3,41.745,6.279,41.362,5.636-15.319,6.7-15.319.684,11.106,2.8,11.106,9.808-108.766,12.227-108.383,2.2,5.745,3.272,5.745,3.2-53.234,5.669-53.234.79,12.255,3.72,12.638,1.094-12.255,3.458-12.255,1.729-.383,4.135-.383.16,34.468,2.407,34.085,1.958-12.638,3.548-12.638,1.115,109.531,3.548,109.531,2.327-38.68,5.325-38.68,1.405,15.319,3.647,15.319,2.563-9.954,4.17-9.382,4.819,90.573,7.389,90.573,7.068-24.127,9-24.127,2.57-11.49,4.176-11.107.964,19.149,3.534,19.915V216H0Z"/>
  <path class="cls-4" d="M0,105.6c3.32.383,20.99-90.426,22.917-90.426s1.928,38.724,3.855,38.724S32.234,25.83,34.8,26.213,38.017,38.4,39.623,38.021s.643-17.978,2.57-17.6,3.856,53.17,5.783,52.787,1.285-10.341,2.892-9.958S58.9,139.6,62.112,138.83s3.213-9.787,5.783-10.17S73.035,159,74.963,159,80.746,124.532,83,124.532s2.891,12.638,4.819,13.021,1.606,12.256,4.5,11.49,1.607-10.341,3.213-9.958,1.928,19.532,3.855,19.532,5.141-65.872,6.747-65.872.964,20.681,2.57,20.681,1.606-31.4,3.534-31.4,2.57,54.766,3.534,54.766,3.088-15.7,5.239-15.7,4.3,41.745,6.279,41.362,5.636-15.319,6.7-15.319.684,11.106,2.8,11.106,9.808-108.766,12.227-108.383,2.2,5.745,3.272,5.745,3.2-53.234,5.669-53.234.79,12.255,3.72,12.638,1.094-12.255,3.458-12.255,1.729-.383,4.135-.383.16,34.468,2.407,34.085,1.958-12.638,3.548-12.638,1.115,109.531,3.548,109.531,2.327-38.68,5.325-38.68,1.405,15.319,3.647,15.319,2.563-9.954,4.17-9.382,4.819,90.573,7.389,90.573,7.068-24.127,9-24.127,2.57-11.49,4.176-11.107.964,19.149,3.534,19.915"/>
  <rect class="cls-5" x="19.132" width="6.337" height="216"/>
  <rect class="cls-5" x="33.233" width="11.32" height="216"/>
  <rect class="cls-5" x="154.694" width="21.498" height="216"/>
  <circle class="cls-6" cx="19.132" cy="28.745" r="2.585"/>
  <circle class="cls-6" cx="154.606" cy="28.745" r="2.585"/>
  <circle class="cls-6" cx="33.234" cy="28.745" r="2.585"/>
  <circle class="cls-6" cx="176.192" cy="45.766" r="2.585"/>
  <circle class="cls-6" cx="44.987" cy="45.766" r="2.585"/>
  <circle class="cls-6" cx="25.471" cy="45.766" r="2.585"/>
  <polygon class="cls-7" points="56.057 57.575 71.535 85.315 73.582 71.571 86.53 66.539 56.057 57.575"/>
  <line class="cls-8" x1="22.886" x2="22.886" y2="216"/>
  <line class="cls-8" x1="42.162" x2="42.162" y2="216"/>
  <line class="cls-8" x1="164.389" x2="164.389" y2="216"/>
  <g>
    <line class="cls-9" x1="142.84" y1="35.383" x2="146.308" y2="22.087"/>
    <polygon class="cls-7" points="147.435 17.766 148.335 24.504 146.224 22.41 143.359 23.206 147.435 17.766"/>
  </g>
  <g>
    <line class="cls-9" x1="164.389" y1="39.787" x2="167.857" y2="53.083"/>
    <polygon class="cls-7" points="168.984 57.404 164.908 51.964 167.773 52.76 169.884 50.666 168.984 57.404"/>
  </g>
</svg>
