<svg id="Layer_1" data-name="Layer 1" xmlns="http://www.w3.org/2000/svg" width="216" height="216" viewBox="0 0 216 216">
  <defs>
    <style>
      .cls-1, .cls-2, .cls-4, .cls-6, .cls-8, .cls-9 {
        fill: none;
        stroke-miterlimit: 10;
      }

      .cls-1 {
        stroke: #ee7c2b;
      }

      .cls-1, .cls-2, .cls-9 {
        stroke-width: 1.054px;
      }

      .cls-2 {
        stroke: #ef3f23;
      }

      .cls-3 {
        fill: #365073;
        opacity: 0.83;
        isolation: isolate;
      }

      .cls-4 {
        stroke: #5a85bd;
        stroke-width: 1.832px;
      }

      .cls-5 {
        fill: #3fd969;
        opacity: 0.3;
      }

      .cls-6, .cls-9 {
        stroke: #fff;
      }

      .cls-7 {
        fill: #fff;
      }

      .cls-8 {
        stroke: #f0ff9c;
      }
    </style>
  </defs>
  <title>Tuning Graph</title>
  <rect width="216" height="216"/>
  <line class="cls-1" x1="0.139" y1="115.787" x2="216" y2="115.787"/>
  <line class="cls-2" y1="88.745" x2="215.861" y2="88.745"/>
  <path class="cls-3" d="M0,105.6c3.32.383,20.99-90.426,22.917-90.426s1.928,38.724,3.855,38.724S32.234,25.83,34.8,26.213,38.017,38.4,39.623,38.021s.643-17.978,2.57-17.6,3.856,53.17,5.783,52.787,1.285-10.341,2.892-9.958S58.9,139.6,62.112,138.83s3.213-9.787,5.783-10.17S73.035,159,74.963,159,80.746,124.532,83,124.532s2.891,12.638,4.819,13.021,1.606,12.256,4.5,11.49,1.607-10.341,3.213-9.958,1.928,19.532,3.855,19.532,5.141-65.872,6.747-65.872.964,20.681,2.57,20.681,1.606-31.4,3.534-31.4,2.57,54.766,3.534,54.766,3.088-15.7,5.239-15.7,4.3,41.745,6.279,41.362,5.636-15.319,6.7-15.319.684,11.106,2.8,11.106,9.808-108.766,12.227-108.383,2.2,5.745,3.272,5.745,3.2-53.234,5.669-53.234.79,12.255,3.72,12.638,1.094-12.255,3.458-12.255,1.729-.383,4.135-.383.16,34.468,2.407,34.085,1.958-12.638,3.548-12.638,1.115,109.531,3.548,109.531,2.327-38.68,5.325-38.68,1.405,15.319,3.647,15.319,2.563-9.954,4.17-9.382,4.819,90.573,7.389,90.573,7.068-24.127,9-24.127,2.57-11.49,4.176-11.107.964,19.149,3.534,19.915V216H0Z"/>
  <path class="cls-4" d="M0,105.6c3.32.383,20.99-90.426,22.917-90.426s1.928,38.724,3.855,38.724S32.234,25.83,34.8,26.213,38.017,38.4,39.623,38.021s.643-17.978,2.57-17.6,3.856,53.17,5.783,52.787,1.285-10.341,2.892-9.958S58.9,139.6,62.112,138.83s3.213-9.787,5.783-10.17S73.035,159,74.963,159,80.746,124.532,83,124.532s2.891,12.638,4.819,13.021,1.606,12.256,4.5,11.49,1.607-10.341,3.213-9.958,1.928,19.532,3.855,19.532,5.141-65.872,6.747-65.872.964,20.681,2.57,20.681,1.606-31.4,3.534-31.4,2.57,54.766,3.534,54.766,3.088-15.7,5.239-15.7,4.3,41.745,6.279,41.362,5.636-15.319,6.7-15.319.684,11.106,2.8,11.106,9.808-108.766,12.227-108.383,2.2,5.745,3.272,5.745,3.2-53.234,5.669-53.234.79,12.255,3.72,12.638,1.094-12.255,3.458-12.255,1.729-.383,4.135-.383.16,34.468,2.407,34.085,1.958-12.638,3.548-12.638,1.115,109.531,3.548,109.531,2.327-38.68,5.325-38.68,1.405,15.319,3.647,15.319,2.563-9.954,4.17-9.382,4.819,90.573,7.389,90.573,7.068-24.127,9-24.127,2.57-11.49,4.176-11.107.964,19.149,3.534,19.915"/>
  <rect class="cls-5" x="5.434" width="52.187" height="216"/>
  <rect class="cls-5" x="110.927" width="3.669" height="216"/>
  <rect class="cls-5" x="144.181" width="33.182" height="216"/>
  <circle class="cls-6" cx="144.181" cy="88.745" r="2.585"/>
  <circle class="cls-6" cx="110.927" cy="88.745" r="2.585"/>
  <circle class="cls-6" cx="5.434" cy="88.745" r="2.585"/>
  <circle class="cls-6" cx="177.393" cy="115.787" r="2.585"/>
  <circle class="cls-6" cx="58.303" cy="115.787" r="2.585"/>
  <circle class="cls-6" cx="114.596" cy="115.787" r="2.585"/>
  <polygon class="cls-7" points="105.534 74.251 90.056 46.511 88.009 60.255 75.061 65.287 105.534 74.251"/>
  <line class="cls-8" x1="22.87" x2="22.87" y2="216"/>
  <line class="cls-8" x1="112.011" x2="112.011" y2="216"/>
  <line class="cls-8" x1="164.352" x2="164.352" y2="216"/>
  <g>
    <line class="cls-9" x1="132.415" y1="95.383" x2="135.884" y2="82.087"/>
    <polygon class="cls-7" points="137.011 77.766 137.911 84.504 135.799 82.41 132.935 83.206 137.011 77.766"/>
  </g>
  <g>
    <line class="cls-9" x1="165.589" y1="109.809" x2="169.057" y2="123.104"/>
    <polygon class="cls-7" points="170.184 127.426 166.108 121.986 168.973 122.781 171.083 120.688 170.184 127.426"/>
  </g>
</svg>
