<svg id="Layer_1" data-name="Layer 1" xmlns="http://www.w3.org/2000/svg" width="216" height="216" viewBox="0 0 216 216">
  <defs>
    <style>
      .cls-1 {
        fill: #224873;
        opacity: 0.83;
        isolation: isolate;
      }

      .cls-2, .cls-3, .cls-4, .cls-6 {
        fill: none;
        stroke-miterlimit: 10;
      }

      .cls-2 {
        stroke: #5a85bd;
        stroke-width: 1.832px;
      }

      .cls-3 {
        stroke: #ee7c2b;
      }

      .cls-3, .cls-4, .cls-6 {
        stroke-width: 1.054px;
      }

      .cls-4 {
        stroke: #fff;
      }

      .cls-5 {
        fill: #fff;
      }

      .cls-6 {
        stroke: #ef3f23;
      }

      .cls-7 {
        fill: #231f20;
      }
    </style>
  </defs>
  <title>Tuning Graph</title>
  <rect width="216" height="216"/>
  <path class="cls-1" d="M0,105.6c3.32.383,20.99-90.426,22.917-90.426s1.928,38.724,3.855,38.724S32.234,25.83,34.8,26.213,38.017,38.4,39.623,38.021s.643-17.978,2.57-17.6,3.856,53.17,5.783,52.787,1.285-10.341,2.892-9.958S58.9,139.6,62.112,138.83s3.213-9.787,5.783-10.17S73.035,159,74.963,159,80.746,124.532,83,124.532s2.891,12.638,4.819,13.021,1.606,12.256,4.5,11.49,1.607-10.341,3.213-9.958,1.928,19.532,3.855,19.532,5.141-65.872,6.747-65.872.964,20.681,2.57,20.681,1.606-31.4,3.534-31.4,2.57,54.766,3.534,54.766,3.088-15.7,5.239-15.7,4.3,41.745,6.279,41.362,5.636-15.319,6.7-15.319.684,11.106,2.8,11.106,9.808-108.766,12.227-108.383,2.2,5.745,3.272,5.745,3.2-53.234,5.669-53.234.79,12.255,3.72,12.638,1.094-12.255,3.458-12.255,1.729-.383,4.135-.383.16,34.468,2.407,34.085,1.958-12.638,3.548-12.638,1.115,109.531,3.548,109.531,2.327-38.68,5.325-38.68,1.405,15.319,3.647,15.319,2.563-9.954,4.17-9.382,4.819,90.573,7.389,90.573,7.068-24.127,9-24.127,2.57-11.49,4.176-11.107.964,19.149,3.534,19.915V216H0Z"/>
  <path d="M0,0V105.6c3.32.383,20.99-90.426,22.917-90.426s1.928,38.724,3.855,38.724S32.234,25.83,34.8,26.213,38.017,38.4,39.623,38.021s.643-17.978,2.57-17.6,3.856,53.17,5.783,52.787,1.285-10.341,2.892-9.958S58.9,139.6,62.112,138.83s3.213-9.787,5.783-10.17S73.035,159,74.963,159,80.746,124.532,83,124.532s2.891,12.638,4.819,13.021,1.606,12.256,4.5,11.49,1.607-10.341,3.213-9.958,1.928,19.532,3.855,19.532,5.141-65.872,6.747-65.872.964,20.681,2.57,20.681,1.606-31.4,3.534-31.4,2.57,54.766,3.534,54.766,3.088-15.7,5.239-15.7,4.3,41.745,6.279,41.362,5.636-15.319,6.7-15.319.684,11.106,2.8,11.106,9.808-108.766,12.227-108.383,2.2,5.745,3.272,5.745,3.2-53.234,5.669-53.234.79,12.255,3.72,12.638,1.094-12.255,3.458-12.255,1.729-.383,4.135-.383.16,34.468,2.407,34.085,1.958-12.638,3.548-12.638,1.115,109.531,3.548,109.531,2.327-38.68,5.325-38.68,1.405,15.319,3.647,15.319,2.563-9.955,4.17-9.382,4.819,90.573,7.389,90.573,7.068-24.127,9-24.127,2.57-11.49,4.176-11.107.964,19.149,3.534,19.915V0Z"/>
  <path class="cls-2" d="M0,105.6c3.32.383,20.99-90.426,22.917-90.426s1.928,38.724,3.855,38.724S32.234,25.83,34.8,26.213,38.017,38.4,39.623,38.021s.643-17.978,2.57-17.6,3.856,53.17,5.783,52.787,1.285-10.341,2.892-9.958S58.9,139.6,62.112,138.83s3.213-9.787,5.783-10.17S73.035,159,74.963,159,80.746,124.532,83,124.532s2.891,12.638,4.819,13.021,1.606,12.256,4.5,11.49,1.607-10.341,3.213-9.958,1.928,19.532,3.855,19.532,5.141-65.872,6.747-65.872.964,20.681,2.57,20.681,1.606-31.4,3.534-31.4,2.57,54.766,3.534,54.766,3.088-15.7,5.239-15.7,4.3,41.745,6.279,41.362,5.636-15.319,6.7-15.319.684,11.106,2.8,11.106,9.808-108.766,12.227-108.383,2.2,5.745,3.272,5.745,3.2-53.234,5.669-53.234.79,12.255,3.72,12.638,1.094-12.255,3.458-12.255,1.729-.383,4.135-.383.16,34.468,2.407,34.085,1.958-12.638,3.548-12.638,1.115,109.531,3.548,109.531,2.327-38.68,5.325-38.68,1.405,15.319,3.647,15.319,2.563-9.954,4.17-9.382,4.819,90.573,7.389,90.573,7.068-24.127,9-24.127,2.57-11.49,4.176-11.107.964,19.149,3.534,19.915"/>
  <line class="cls-3" y1="52.787" x2="215.861" y2="52.787"/>
  <line class="cls-3" y1="157.723" x2="215.861" y2="157.723"/>
  <g>
    <line class="cls-4" x1="91.532" y1="59.828" x2="91.532" y2="150.683"/>
    <polygon class="cls-5" points="91.532 56.106 89.389 61.35 91.532 60.106 93.674 61.35 91.532 56.106"/>
    <polygon class="cls-5" points="91.532 154.404 89.389 149.16 91.532 150.405 93.674 149.16 91.532 154.404"/>
  </g>
  <line class="cls-6" x1="0.069" y1="30.404" x2="215.931" y2="30.404"/>
  <g>
    <polygon class="cls-5" points="124.895 170.032 128.104 164.475 131.313 170.032 124.895 170.032"/>
    <path class="cls-7" d="M128.1,165.475l2.343,4.057h-4.686l2.343-4.057m0-2-.866,1.5-2.343,4.057-.866,1.5h8.15l-.866-1.5-2.343-4.057-.866-1.5Z"/>
  </g>
  <g>
    <polygon class="cls-5" points="23.686 40.751 30.104 40.751 26.895 46.309 23.686 40.751"/>
    <path class="cls-7" d="M29.238,41.251,26.9,45.308l-2.343-4.057h4.686m1.732-1H22.82l.866,1.5,2.343,4.058.866,1.5.866-1.5L30.1,41.751l.866-1.5Z"/>
  </g>
</svg>
